<svg width="122" height="34" viewBox="0 0 122 34" fill="none" xmlns="http://www.w3.org/2000/svg">
<path fill-rule="evenodd" clip-rule="evenodd" d="M87.5991 15.3604V33.9999H97.9545V22.9543H109.69C114.63 22.9176 118.826 19.7624 120.408 15.3604H87.5991Z" fill="#37A72E"/>
<path fill-rule="evenodd" clip-rule="evenodd" d="M86.2183 0C86.8214 7.61884 94.0293 13.6345 102.832 13.6345C102.861 13.6345 120.838 13.6345 120.838 13.6345C120.971 12.9358 121.04 12.2146 121.04 11.4772C121.04 5.1659 115.948 0.0466895 109.649 0.000317552L86.2183 0Z" fill="url(#paint0_linear_12250_22044)"/>
<path fill-rule="evenodd" clip-rule="evenodd" d="M70.8925 13.4532L70.9006 13.4358L70.9016 13.4361C71.0078 13.2456 71.2112 13.1168 71.4448 13.1168C71.7821 13.1168 72.0567 13.3856 72.0659 13.7208L72.0661 13.7208V33.8274H82.4214V0H72.0661C70.7529 0.0437083 69.2693 1.00733 68.7177 2.1902L60.4768 19.8628C60.4565 19.935 60.4247 20.0024 60.3835 20.063L60.3807 20.0689L60.3797 20.0685C60.255 20.248 60.0474 20.3655 59.8123 20.3655C59.431 20.3655 59.1219 20.0564 59.1219 19.6751V0H48.7666V33.8274H59.1219V33.8236C60.4207 33.7557 61.8695 32.8029 62.4131 31.6372L70.8712 13.4988C70.8777 13.4833 70.8848 13.4681 70.8925 13.4532Z" fill="#37A72E"/>
<path fill-rule="evenodd" clip-rule="evenodd" d="M32.2245 14.0315L26.1723 33.8274H18.7229L12.667 14.0194C12.6086 13.7022 12.3306 13.4619 11.9965 13.4619C11.62 13.4619 11.3148 13.7671 11.3148 14.1437C11.3148 14.1465 11.3148 14.1494 11.3149 14.1523L11.3148 33.8274H0.959473V0H9.8478H12.4949C14.4003 0 16.3971 1.47871 16.9539 3.29995L21.9936 19.784C22.2443 20.6041 22.6511 20.6033 22.9016 19.784L27.9413 3.29995C28.4985 1.47744 30.4946 0 32.4002 0L35.0466 0H43.9341V33.8274H33.5788V14.1523C33.5787 14.1494 33.5788 14.1465 33.5788 14.1437C33.5788 13.7671 33.2735 13.4619 32.897 13.4619C32.5587 13.4619 32.278 13.7083 32.2245 14.0315Z" fill="#37A72E"/>
<defs>
<linearGradient id="paint0_linear_12250_22044" x1="86.2183" y1="6.81726" x2="121.04" y2="6.81726" gradientUnits="userSpaceOnUse">
<stop stop-color="#00A0E5"/>
<stop offset="1" stop-color="#0077C3"/>
</linearGradient>
</defs>
</svg>
