<svg width="49" height="48" viewBox="0 0 49 48" fill="none" xmlns="http://www.w3.org/2000/svg">
<g clip-path="url(#clip0_12250_5190)">
<path d="M44.1698 2.92535L43.4072 4.3316L44.8135 5.09416L45.576 3.68791L44.1698 2.92535Z" fill="black"/>
<path d="M42.66 17.6011L32.8478 15.0088C32.4207 14.8962 31.9831 15.1511 31.8704 15.5782V15.5783C31.7577 16.0054 32.0127 16.443 32.4398 16.5557H32.4399L42.2513 19.1479C42.3182 19.1652 42.387 19.1741 42.4561 19.1743C42.8978 19.1744 43.256 18.8164 43.2561 18.3747C43.2561 18.0114 43.0114 17.6936 42.66 17.6011Z" fill="black"/>
<path d="M44.2626 14.7209L34.3672 12.1951C33.9392 12.086 33.5037 12.3445 33.3946 12.7725C33.2855 13.2005 33.5441 13.6361 33.9721 13.7451L43.8675 16.2702C43.932 16.287 43.9984 16.2953 44.0651 16.295C44.5068 16.2933 44.8635 15.9337 44.8618 15.492C44.8603 15.1287 44.6142 14.8121 44.2626 14.7209Z" fill="black"/>
<path d="M30.7964 29.924H29.1968V31.5236H30.7964V29.924Z" fill="black"/>
<path d="M48.4561 3.41604C48.1338 1.23102 46.1012 -0.27895 43.9162 0.0433798C41.7312 0.365709 40.2212 2.39826 40.5436 4.58329C40.5989 4.9582 40.7071 5.32332 40.8652 5.66765L40.0918 7.08414L39.3903 6.70262C39.0025 6.49167 38.517 6.63484 38.3058 7.02255L36.9956 9.43563L35.8463 9.12849C35.4198 9.01322 34.9806 9.26546 34.8653 9.69197C34.75 10.1185 35.0023 10.5577 35.4288 10.673L45.465 13.3924C45.533 13.4111 45.6033 13.4205 45.6737 13.4204C46.1154 13.4215 46.4745 13.0642 46.4756 12.6225C46.4765 12.2597 46.233 11.9417 45.8825 11.8479L44.9299 11.5904L45.3354 10.8425C45.5464 10.4547 45.4032 9.96921 45.0155 9.75795L44.3124 9.37644L45.0835 7.95595C47.2684 7.63362 48.7785 5.60106 48.4561 3.41604ZM43.3407 11.1576L41.6914 10.7097L38.5793 9.86673L39.3263 8.49023L40.8788 9.33325L42.8448 10.4002L43.5454 10.7801L43.3407 11.1576ZM43.8789 6.8138L42.9047 8.60941L41.4987 7.84877L42.4736 6.05157C42.6094 5.80112 42.6018 5.49739 42.4536 5.25414C41.7592 4.12549 42.1112 2.64751 43.24 1.95316C44.3686 1.25871 45.8466 1.61084 46.5409 2.73949C47.2354 3.86814 46.8834 5.34612 45.7546 6.04047C45.394 6.26232 44.9812 6.38479 44.558 6.39549C44.2732 6.40409 44.0146 6.56345 43.8789 6.8138Z" fill="black"/>
<path d="M47.6902 24.8051H42.8912C42.4495 24.8051 42.0914 25.1632 42.0914 25.6049V28.0044H36.9325L38.0291 25.984C38.24 25.5962 38.0969 25.1107 37.7091 24.8995L36.3031 24.1364L37.8603 21.2658L40.6389 22.0249C41.0652 22.1413 41.5051 21.8901 41.6215 21.4638C41.7379 21.0375 41.4867 20.5976 41.0604 20.4812L31.3289 17.8234C30.9008 17.7144 30.4655 17.9732 30.3566 18.4013C30.2503 18.8188 30.4938 19.2455 30.9074 19.3663L33.1038 19.9669L32.0832 21.8457L30.6771 21.0827C30.2894 20.8722 29.8046 21.0154 29.5933 21.4026L28.0673 24.2148C27.8563 24.6026 27.9995 25.0881 28.3872 25.2994L29.7933 26.0616L29.4046 26.7814C29.1353 26.8211 28.8708 26.8881 28.6151 26.9814C28.0327 27.1968 27.5097 27.5475 27.0891 28.0044H21.2959V25.6049C21.2959 25.1632 20.9378 24.8051 20.4961 24.8051H18.0966V18.4065C18.094 16.199 16.305 14.4099 14.0975 14.4073H4.49961C2.2921 14.4099 0.503088 16.199 0.500488 18.4065V44.0009C0.503088 46.2084 2.2921 47.9974 4.49961 48H14.0975C16.305 47.9974 18.094 46.2084 18.0966 44.0009V37.6023H20.4961C20.9378 37.6023 21.2959 37.2442 21.2959 36.8025V34.403H28.4736C29.4508 34.8209 30.5565 34.8209 31.5337 34.403H42.0914V36.8025C42.0914 37.2442 42.4495 37.6023 42.8912 37.6023H47.6902C48.1319 37.6023 48.49 37.2442 48.49 36.8025V25.6049C48.49 25.1632 48.1319 24.8051 47.6902 24.8051ZM3.69979 46.2532C2.7445 45.9155 2.10434 45.0141 2.10014 44.0009V18.4065C2.10434 17.3933 2.7445 16.4919 3.69979 16.1542V46.2532ZM6.89909 46.4003H5.29944V16.007H6.89909V46.4003ZM10.0984 46.4003H8.49874V16.007H10.0984V46.4003ZM13.2977 46.4003H11.698V16.007H13.2977V46.4003ZM16.497 25.6049V44.0009C16.4928 45.0141 15.8526 45.9155 14.8973 46.2532V16.1542C15.8526 16.4919 16.4928 17.3933 16.497 18.4065V25.6049ZM19.6963 28.8042V36.0026H18.0966V26.4047H19.6963V28.8042ZM21.2959 32.8033V29.604H26.1581C26.0947 29.8253 26.051 30.0517 26.0277 30.2807C26.0277 30.3095 26.0197 30.3383 26.0165 30.3671C25.9973 30.5938 25.9973 30.8218 26.0165 31.0485C26.0165 31.0837 26.0213 31.1181 26.0253 31.1533C26.0495 31.3745 26.0923 31.5935 26.1533 31.8075C26.1629 31.8427 26.1733 31.8779 26.1845 31.9131C26.2501 32.1258 26.3333 32.3325 26.4332 32.5314C26.4492 32.5626 26.4668 32.593 26.4836 32.625C26.5156 32.6842 26.5444 32.7457 26.5796 32.8033H21.2959ZM34.565 20.6284L36.0975 21.1563L34.893 23.3734L33.4869 22.6104L34.565 20.6284ZM30.6171 22.8727L36.2415 25.9248L35.4784 27.3301L32.1608 25.5305L31.261 25.045L29.8541 24.2788L30.6171 22.8727ZM32.0336 29.4817C32.7235 30.6037 32.3733 32.0727 31.2512 32.7626C30.5618 33.1865 29.7045 33.2319 28.9743 32.8833C28.9527 32.8729 28.8767 32.8441 28.8543 32.8361C27.6898 32.2041 27.258 30.7479 27.8897 29.5832C27.9482 29.48 28.0148 29.3816 28.0889 29.2889C28.3624 28.9237 28.7361 28.6457 29.1646 28.4891C29.4107 28.3998 29.6692 28.3501 29.9308 28.3419C30.2154 28.3335 30.4739 28.1744 30.6099 27.9244L31.2026 26.831L32.6087 27.5941L32.0136 28.6842C31.8777 28.9347 31.8853 29.2384 32.0336 29.4817ZM38.8921 32.8033H33.4133C33.4477 32.7473 33.4805 32.6905 33.5117 32.6322C33.6231 32.4223 33.7152 32.2029 33.7868 31.9763C33.7988 31.9371 33.8132 31.8963 33.8244 31.8603C33.887 31.6456 33.9311 31.4259 33.9564 31.2037C33.9612 31.1597 33.9644 31.1157 33.9684 31.0717C33.988 30.844 33.988 30.6148 33.9684 30.3871C33.9684 30.3671 33.962 30.3487 33.9604 30.3287C33.9364 30.1086 33.8944 29.8909 33.8348 29.6776C33.8284 29.6544 33.8276 29.6296 33.8212 29.6064H38.8921V32.8033ZM42.0914 32.8033H40.4917V29.604H42.0914V32.8033ZM46.8903 36.0026H43.691V26.4047H46.8903V36.0026Z" fill="black"/>
</g>
<defs>
<clipPath id="clip0_12250_5190">
<rect width="48" height="48" fill="white" transform="translate(0.5)"/>
</clipPath>
</defs>
</svg>
