<svg width="49" height="48" viewBox="0 0 49 48" fill="none" xmlns="http://www.w3.org/2000/svg">
<path fill-rule="evenodd" clip-rule="evenodd" d="M20.4498 42C28.8998 42 35.7498 35.15 35.7498 26.7C35.7498 18.2501 28.8998 11.4 20.4498 11.4C11.9998 11.4 5.1498 18.2501 5.1498 26.7C5.1498 35.15 11.9998 42 20.4498 42ZM20.4498 43.6C29.7834 43.6 37.3498 36.0336 37.3498 26.7C37.3498 17.3664 29.7834 9.80002 20.4498 9.80002C11.1162 9.80002 3.5498 17.3664 3.5498 26.7C3.5498 36.0336 11.1162 43.6 20.4498 43.6Z" fill="black"/>
<path fill-rule="evenodd" clip-rule="evenodd" d="M20.4498 37.1C26.1936 37.1 30.8498 32.4438 30.8498 26.7C30.8498 20.9563 26.1936 16.3 20.4498 16.3C14.706 16.3 10.0498 20.9563 10.0498 26.7C10.0498 32.4438 14.706 37.1 20.4498 37.1ZM20.4498 38.7C27.0772 38.7 32.4498 33.3274 32.4498 26.7C32.4498 20.0726 27.0772 14.7 20.4498 14.7C13.8224 14.7 8.4498 20.0726 8.4498 26.7C8.4498 33.3274 13.8224 38.7 20.4498 38.7Z" fill="black"/>
<path fill-rule="evenodd" clip-rule="evenodd" d="M23.3498 26.7C23.3498 28.3016 22.0514 29.6 20.4498 29.6C18.8482 29.6 17.5498 28.3016 17.5498 26.7C17.5498 25.0984 18.8482 23.8 20.4498 23.8C22.0514 23.8 23.3498 25.0984 23.3498 26.7ZM21.7498 26.7C21.7498 27.418 21.1678 28 20.4498 28C19.7318 28 19.1498 27.418 19.1498 26.7C19.1498 25.982 19.7318 25.4 20.4498 25.4C21.1678 25.4 21.7498 25.982 21.7498 26.7Z" fill="black"/>
<path fill-rule="evenodd" clip-rule="evenodd" d="M20.4498 38.7C27.0772 38.7 32.4498 33.3274 32.4498 26.7C32.4498 20.0726 27.0772 14.7 20.4498 14.7C13.8224 14.7 8.4498 20.0726 8.4498 26.7C8.4498 33.3274 13.8224 38.7 20.4498 38.7ZM20.4498 37.1C20.8422 37.1 21.2296 37.0783 21.6107 37.036V30.8285C22.3428 30.6211 22.9953 30.2236 23.5115 29.6925L28.8771 32.7955C29.3142 32.1923 29.6881 31.5403 29.9891 30.8492L24.6006 27.733C24.6822 27.4021 24.7255 27.0561 24.7255 26.7C24.7255 26.3133 24.6745 25.9386 24.5787 25.5822L29.9549 22.4731C29.6483 21.7847 29.2691 21.1357 28.8271 20.5359L23.45 23.6455C22.9439 23.1455 22.3141 22.7708 21.6107 22.5715V16.3641C21.2296 16.3218 20.8422 16.3 20.4498 16.3C20.0858 16.3 19.7262 16.3187 19.3719 16.3552V22.5452C18.6461 22.7322 17.9948 23.1051 17.4715 23.6101L12.0975 20.5023C11.6529 21.1004 11.2711 21.7478 10.9618 22.4349L16.3199 25.5336C16.2155 25.9044 16.1597 26.2957 16.1597 26.7C16.1597 27.0738 16.2074 27.4365 16.2971 27.7821L10.9273 30.8876C11.231 31.5773 11.6075 32.2278 12.0471 32.8294L17.4091 29.7285C17.9427 30.2647 18.617 30.6603 19.3719 30.8549V37.0448C19.7262 37.0813 20.0858 37.1 20.4498 37.1ZM17.8145 31.2954V36.7632C15.9926 36.2874 14.3654 35.33 13.0771 34.0351L17.8145 31.2954ZM15.1378 26.6513L10.4012 29.3905C10.172 28.5323 10.0498 27.6304 10.0498 26.7C10.0498 25.7391 10.1801 24.8086 10.4241 23.9253L15.1378 26.6513ZM17.8145 22.0072L13.139 19.3033C14.4174 18.0396 16.0217 17.105 17.8145 16.6368V22.0072ZM23.1681 31.2953V36.7412C24.9707 36.2544 26.5793 35.2951 27.8528 34.0045L23.1681 31.2953ZM30.8498 26.7C30.8498 27.6154 30.7315 28.5031 30.5095 29.3488L25.845 26.6513L30.4869 23.9668C30.7235 24.8377 30.8498 25.7541 30.8498 26.7ZM23.1681 16.6589C24.9417 17.1379 26.5276 18.0742 27.7912 19.3336L23.1681 22.0072V16.6589Z" fill="black"/>
<path d="M36.2349 32.738C37.244 30.0999 37.5759 27.251 37.2001 24.4516C36.8243 21.6522 35.7529 18.9916 34.0838 16.7131C32.4147 14.4345 30.2011 12.6106 27.6453 11.4081C25.0896 10.2056 22.2732 9.66286 19.4536 9.82944L19.8218 16.0614C21.5998 15.9563 23.3759 16.2986 24.9875 17.0569C26.5992 17.8152 27.9951 18.9653 29.0477 20.4022C30.1002 21.8391 30.7758 23.5168 31.0128 25.2822C31.2498 27.0475 31.0405 28.844 30.4042 30.5076L36.2349 32.738Z" fill="black"/>
<path fill-rule="evenodd" clip-rule="evenodd" d="M40.35 16.5C42.5591 16.5 44.35 14.7091 44.35 12.5C44.35 12.1194 44.1486 11.4086 43.6427 10.3928C43.1642 9.43178 42.5099 8.38435 41.8311 7.39602C41.3137 6.64267 40.7944 5.94148 40.35 5.3624C39.9056 5.94148 39.3863 6.64267 38.8689 7.39602C38.1901 8.38435 37.5358 9.43178 37.0573 10.3928C36.5514 11.4086 36.35 12.1194 36.35 12.5C36.35 14.7091 38.1409 16.5 40.35 16.5ZM39.326 4.07108C37.71 6.14526 34.75 10.2514 34.75 12.5C34.75 15.5928 37.2572 18.1 40.35 18.1C43.4428 18.1 45.95 15.5928 45.95 12.5C45.95 10.2514 42.99 6.14526 41.374 4.07108C40.7673 3.29231 40.35 2.79999 40.35 2.79999C40.35 2.79999 39.9327 3.29231 39.326 4.07108Z" fill="black"/>
</svg>
