<svg width="33" height="32" viewBox="0 0 33 32" fill="none" xmlns="http://www.w3.org/2000/svg">
<path d="M2.6001 15H30.6001" stroke="white" stroke-width="2" stroke-linecap="round" stroke-linejoin="round"/>
<path d="M28.6001 23V26C28.6001 26.2652 28.4947 26.5196 28.3072 26.7071C28.1197 26.8946 27.8653 27 27.6001 27H24.6001C24.3349 27 24.0805 26.8946 23.893 26.7071C23.7055 26.5196 23.6001 26.2652 23.6001 26V23" stroke="white" stroke-width="2" stroke-linecap="round" stroke-linejoin="round"/>
<path d="M9.6001 23V26C9.6001 26.2652 9.49474 26.5196 9.3072 26.7071C9.11967 26.8946 8.86531 27 8.6001 27H5.6001C5.33488 27 5.08053 26.8946 4.89299 26.7071C4.70545 26.5196 4.6001 26.2652 4.6001 26V23" stroke="white" stroke-width="2" stroke-linecap="round" stroke-linejoin="round"/>
<path d="M8.6001 19H10.6001" stroke="white" stroke-width="2" stroke-linecap="round" stroke-linejoin="round"/>
<path d="M22.6001 19H24.6001" stroke="white" stroke-width="2" stroke-linecap="round" stroke-linejoin="round"/>
<path d="M28.6001 15L24.864 6.59386C24.7855 6.4171 24.6573 6.26691 24.4951 6.16151C24.3329 6.0561 24.1437 6 23.9502 6H9.24997C9.05654 6 8.86725 6.0561 8.70506 6.16151C8.54286 6.26691 8.41472 6.4171 8.33616 6.59386L4.6001 15V23H28.6001V15Z" stroke="white" stroke-width="2" stroke-linecap="round" stroke-linejoin="round"/>
</svg>
