<svg width="32" height="33" viewBox="0 0 32 33" fill="none" xmlns="http://www.w3.org/2000/svg">
<path d="M10 29.5C11.1046 29.5 12 28.6046 12 27.5C12 26.3954 11.1046 25.5 10 25.5C8.89543 25.5 8 26.3954 8 27.5C8 28.6046 8.89543 29.5 10 29.5Z" fill="white"/>
<path d="M23 29.5C24.1046 29.5 25 28.6046 25 27.5C25 26.3954 24.1046 25.5 23 25.5C21.8954 25.5 21 26.3954 21 27.5C21 28.6046 21.8954 29.5 23 29.5Z" fill="white"/>
<path d="M5.28572 9.5H27.7143L24.4144 21.0494C24.295 21.4673 24.0428 21.835 23.6958 22.0967C23.3488 22.3584 22.926 22.5 22.4914 22.5H10.5086C10.074 22.5 9.65119 22.3584 9.30421 22.0967C8.95723 21.835 8.70495 21.4673 8.58556 21.0494L4.06436 5.22528C4.00467 5.01633 3.87853 4.83251 3.70504 4.70165C3.53155 4.57079 3.32015 4.5 3.10284 4.5H1" stroke="white" stroke-width="2" stroke-linecap="round" stroke-linejoin="round"/>
</svg>
