<svg width="49" height="48" viewBox="0 0 49 48" fill="none" xmlns="http://www.w3.org/2000/svg">
<path fill-rule="evenodd" clip-rule="evenodd" d="M24.25 35.4C29.9938 35.4 34.65 30.7438 34.65 25C34.65 19.2562 29.9938 14.6 24.25 14.6C18.5062 14.6 13.85 19.2562 13.85 25C13.85 30.7438 18.5062 35.4 24.25 35.4ZM24.25 37C30.8774 37 36.25 31.6274 36.25 25C36.25 18.3726 30.8774 13 24.25 13C17.6226 13 12.25 18.3726 12.25 25C12.25 31.6274 17.6226 37 24.25 37Z" fill="black"/>
<path fill-rule="evenodd" clip-rule="evenodd" d="M27.15 25C27.15 26.6016 25.8516 27.9 24.25 27.9C22.6484 27.9 21.35 26.6016 21.35 25C21.35 23.3984 22.6484 22.1 24.25 22.1C25.8516 22.1 27.15 23.3984 27.15 25ZM25.55 25C25.55 25.718 24.968 26.3 24.25 26.3C23.532 26.3 22.95 25.718 22.95 25C22.95 24.282 23.532 23.7 24.25 23.7C24.968 23.7 25.55 24.282 25.55 25Z" fill="black"/>
<path fill-rule="evenodd" clip-rule="evenodd" d="M24.25 37C30.8774 37 36.25 31.6274 36.25 25C36.25 18.3726 30.8774 13 24.25 13C17.6226 13 12.25 18.3726 12.25 25C12.25 31.6274 17.6226 37 24.25 37ZM24.25 35.4C24.6424 35.4 25.0298 35.3783 25.4109 35.3359V29.1285C26.143 28.9211 26.7955 28.5236 27.3117 27.9925L32.6773 31.0955C33.1144 30.4923 33.4883 29.8403 33.7893 29.1492L28.4008 26.0329C28.4824 25.7021 28.5257 25.3561 28.5257 25C28.5257 24.6133 28.4747 24.2386 28.3789 23.8822L33.7551 20.7731C33.4485 20.0847 33.0693 19.4357 32.6273 18.8359L27.2502 21.9455C26.7441 21.4455 26.1143 21.0707 25.4109 20.8715V14.6641C25.0298 14.6217 24.6424 14.6 24.25 14.6C23.886 14.6 23.5264 14.6187 23.1721 14.6552V20.8451C22.4463 21.0322 21.795 21.4051 21.2717 21.9101L15.8977 18.8023C15.4531 19.4003 15.0713 20.0478 14.762 20.7349L20.1201 23.8336C20.0157 24.2044 19.9599 24.5957 19.9599 25C19.9599 25.3738 20.0076 25.7364 20.0973 26.0821L14.7275 29.1876C15.0312 29.8773 15.4077 30.5278 15.8473 31.1294L21.2093 28.0285C21.7429 28.5647 22.4172 28.9603 23.1721 29.1549V35.3448C23.5264 35.3813 23.886 35.4 24.25 35.4ZM21.6147 29.5953V35.0632C19.7928 34.5874 18.1656 33.63 16.8773 32.335L21.6147 29.5953ZM18.938 24.9512L14.2014 27.6905C13.9722 26.8323 13.85 25.9304 13.85 25C13.85 24.0391 13.9803 23.1086 14.2243 22.2253L18.938 24.9512ZM21.6147 20.3072L16.9392 17.6033C18.2176 16.3396 19.8219 15.405 21.6147 14.9368V20.3072ZM26.9683 29.5953V35.0412C28.7709 34.5544 30.3794 33.5951 31.653 32.3045L26.9683 29.5953ZM34.65 25C34.65 25.9154 34.5317 26.8031 34.3097 27.6488L29.6452 24.9512L34.2871 22.2668C34.5237 23.1377 34.65 24.0541 34.65 25ZM26.9683 14.9588C28.7419 15.4378 30.3278 16.3742 31.5914 17.6336L26.9683 20.3072V14.9588Z" fill="black"/>
<circle cx="24.2504" cy="25" r="13.8" stroke="black" stroke-width="1.6"/>
<mask id="path-3-inside-1_12250_5225" fill="white">
<path fill-rule="evenodd" clip-rule="evenodd" d="M38.6857 21.15C37.6248 14.1304 31.5659 8.74997 24.2504 8.74997C16.9348 8.74997 10.8759 14.1304 9.81506 21.15C9.70661 20.4324 9.65039 19.6978 9.65039 18.95C9.65039 10.8866 16.187 4.34995 24.2504 4.34995C32.3137 4.34995 38.8504 10.8866 38.8504 18.95C38.8504 19.6978 38.7942 20.4324 38.6857 21.15Z"/>
</mask>
<path d="M38.6857 21.15L37.1037 21.3891L40.2678 21.3891L38.6857 21.15ZM9.81506 21.15L8.23302 21.3891L11.3971 21.3891L9.81506 21.15ZM24.2504 10.35C30.7628 10.35 36.1593 15.1402 37.1037 21.3891L40.2678 20.9109C39.0904 13.1206 32.3691 7.14997 24.2504 7.14997L24.2504 10.35ZM11.3971 21.3891C12.3415 15.1402 17.738 10.35 24.2504 10.35L24.2504 7.14997C16.1317 7.14997 9.41039 13.1206 8.23302 20.9109L11.3971 21.3891ZM11.3971 20.9109C11.3006 20.2722 11.2504 19.6174 11.2504 18.95L8.05039 18.95C8.05039 19.7781 8.11266 20.5927 8.23302 21.3891L11.3971 20.9109ZM11.2504 18.95C11.2504 11.7703 17.0707 5.94995 24.2504 5.94995L24.2504 2.74995C15.3034 2.74995 8.05039 10.0029 8.05039 18.95L11.2504 18.95ZM24.2504 5.94995C31.4301 5.94995 37.2504 11.7703 37.2504 18.95L40.4504 18.95C40.4504 10.0029 33.1974 2.74995 24.2504 2.74995L24.2504 5.94995ZM37.2504 18.95C37.2504 19.6174 37.2002 20.2722 37.1037 20.9109L40.2678 21.3891C40.3881 20.5926 40.4504 19.7781 40.4504 18.95L37.2504 18.95Z" fill="black" mask="url(#path-3-inside-1_12250_5225)"/>
</svg>
