<svg width="32" height="32" viewBox="0 0 32 32" fill="none" xmlns="http://www.w3.org/2000/svg">
<path d="M16 28C22.6274 28 28 22.6274 28 16C28 9.37258 22.6274 4 16 4C9.37258 4 4 9.37258 4 16C4 22.6274 9.37258 28 16 28Z" stroke="white" stroke-width="2" stroke-linecap="round" stroke-linejoin="round"/>
<path d="M26.7708 21.2966L19.9851 17.123C19.8661 17.0499 19.7332 17.0024 19.5948 16.9838L16.7424 16.5993C16.5282 16.5704 16.3105 16.6117 16.1217 16.717C15.933 16.8223 15.7834 16.9859 15.6954 17.1833L13.9831 21.0256C13.9035 21.2042 13.878 21.4024 13.9098 21.5954C13.9417 21.7884 14.0294 21.9678 14.1622 22.1115L16.5122 24.6533C16.6187 24.7685 16.6967 24.9072 16.7397 25.0582C16.7827 25.2091 16.7895 25.368 16.7597 25.5221L16.2811 27.9966" stroke="white" stroke-width="2" stroke-linecap="round" stroke-linejoin="round"/>
<path d="M8.11888 6.95081L7.00085 9.59452C6.90116 9.83025 6.89565 10.0952 6.98545 10.3349L8.42181 14.1684C8.48062 14.3254 8.57797 14.4651 8.70488 14.5746C8.83179 14.6841 8.9842 14.76 9.1481 14.7952L11.8268 15.371C11.9755 15.4029 12.1149 15.4683 12.2344 15.5622C12.354 15.6562 12.4506 15.7761 12.5168 15.9129L12.9925 16.8957C13.0744 17.0648 13.2022 17.2074 13.3614 17.3072C13.5206 17.4071 13.7047 17.46 13.8926 17.46H15.5717" stroke="white" stroke-width="2" stroke-linecap="round" stroke-linejoin="round"/>
<path d="M19.0573 4.39355L20.224 6.48335C20.3343 6.68091 20.3744 6.91003 20.3376 7.13329C20.3009 7.35654 20.1895 7.56073 20.0217 7.7125L16.6578 10.7547C16.6007 10.8063 16.5378 10.8512 16.4705 10.8884L14.9402 11.7334C14.7922 11.8152 14.6259 11.8581 14.4568 11.8581H11.7886C11.5919 11.8581 11.3995 11.9161 11.2356 12.0249C11.0716 12.1338 10.9435 12.2885 10.8671 12.4699L9.82617 14.9409" stroke="white" stroke-width="2" stroke-linecap="round" stroke-linejoin="round"/>
</svg>
