<svg width="65" height="64" viewBox="0 0 65 64" fill="none" xmlns="http://www.w3.org/2000/svg">
<g opacity="0.5">
<path fill-rule="evenodd" clip-rule="evenodd" d="M30.5003 36.383C32.0867 36.383 33.3727 35.0971 33.3727 33.5107C33.3727 31.9244 32.0867 30.6384 30.5003 30.6384C28.914 30.6384 27.628 31.9244 27.628 33.5107C27.628 35.0971 28.914 36.383 30.5003 36.383ZM30.5003 39.5745C33.8493 39.5745 36.5641 36.8597 36.5641 33.5107C36.5641 30.1618 33.8493 27.4469 30.5003 27.4469C27.1514 27.4469 24.4365 30.1618 24.4365 33.5107C24.4365 36.8597 27.1514 39.5745 30.5003 39.5745Z" fill="black"/>
<path d="M35.0116 21.1343C34.7735 22.5837 33.4055 23.5657 31.9561 23.3276C30.5067 23.0896 29.5247 21.7216 29.7628 20.2722C30.0009 18.8228 31.3688 17.8408 32.8182 18.0788C34.2677 18.3169 35.2497 19.6849 35.0116 21.1343Z" fill="black"/>
<path d="M21.2118 28.3549C20.9737 29.8043 19.6057 30.7863 18.1563 30.5482C16.7069 30.3101 15.7249 28.9421 15.963 27.4927C16.201 26.0433 17.569 25.0613 19.0184 25.2994C20.4679 25.5375 21.4498 26.9054 21.2118 28.3549Z" fill="black"/>
<path d="M45.5663 32.3552C45.3282 33.8046 43.9602 34.7866 42.5108 34.5485C41.0614 34.3104 40.0794 32.9424 40.3175 31.493C40.5555 30.0436 41.9235 29.0616 43.3729 29.2997C44.8224 29.5378 45.8043 30.9057 45.5663 32.3552Z" fill="black"/>
<path d="M39.0028 45.4C38.7647 46.8494 37.3967 47.8314 35.9473 47.5934C34.4979 47.3553 33.5159 45.9873 33.754 44.5379C33.9921 43.0885 35.36 42.1065 36.8095 42.3445C38.2589 42.5826 39.2409 43.9506 39.0028 45.4Z" fill="black"/>
<path d="M24.6219 43.0379C24.3839 44.4873 23.0159 45.4693 21.5665 45.2312C20.1171 44.9931 19.1351 43.6251 19.3731 42.1757C19.6112 40.7263 20.9792 39.7443 22.4286 39.9824C23.878 40.2205 24.86 41.5884 24.6219 43.0379Z" fill="black"/>
<path fill-rule="evenodd" clip-rule="evenodd" d="M48.9803 30.8949C48.9806 30.8975 48.981 30.9001 48.9814 30.9026C49.5385 34.8507 48.8167 38.8735 46.9215 42.3817C45.0252 45.8921 42.0538 48.7025 38.4432 50.4005C34.8326 52.0985 30.7729 52.5948 26.8596 51.8166C22.9463 51.0384 19.3854 49.0266 16.6992 46.0764C14.013 43.1261 12.343 39.3927 11.934 35.4238C11.525 31.4549 12.3986 27.4594 14.4268 24.0234C16.4549 20.5874 19.5307 17.8917 23.203 16.3318C26.8754 14.7719 30.951 14.4299 34.832 15.3559L35.4876 12.6082C35.4873 12.6081 35.487 12.608 35.4867 12.608C34.4431 12.359 33.3873 12.1897 32.328 12.0992C28.8521 11.8025 25.339 12.3553 22.0986 13.7317C17.8705 15.5277 14.3291 18.6314 11.994 22.5875C9.65895 26.5436 8.65308 31.1438 9.12396 35.7134C9.59484 40.283 11.5177 44.5815 14.6104 47.9782C17.7032 51.375 21.8031 53.6912 26.3086 54.5872C30.8142 55.4833 35.4883 54.9118 39.6454 52.9568C43.8024 51.0018 47.2236 47.7661 49.407 43.7244C51.0803 40.6268 51.9591 37.1808 51.9886 33.6924C51.9976 32.629 51.9277 31.5617 51.7773 30.499L48.9803 30.8949Z" fill="black"/>
<path fill-rule="evenodd" clip-rule="evenodd" d="M43.9044 24.0426C45.7257 24.0426 47.2022 22.5661 47.2022 20.7448C47.2022 20.7451 47.2022 20.7449 47.2022 20.744C47.2013 20.7311 47.1909 20.5782 47.0836 20.2524C46.9743 19.9206 46.7974 19.5078 46.5455 19.021C46.0391 18.0428 45.3287 16.9551 44.565 15.9015C44.3438 15.5963 44.122 15.2993 43.9044 15.0144C43.6868 15.2993 43.465 15.5963 43.2438 15.9015C42.48 16.9551 41.7696 18.0428 41.2633 19.021C41.0113 19.5078 40.8345 19.9206 40.7252 20.2524C40.6179 20.5782 40.6075 20.7311 40.6066 20.744C40.6065 20.7449 40.6065 20.7451 40.6065 20.7448C40.6065 22.5661 42.083 24.0426 43.9044 24.0426ZM41.8339 12.4766C39.9347 14.8895 37.415 18.5115 37.415 20.7448C37.415 24.3287 40.3204 27.2341 43.9044 27.2341C47.4883 27.2341 50.3937 24.3287 50.3937 20.7448C50.3937 18.5115 47.874 14.8895 45.9748 12.4766C44.8261 11.0172 43.9044 10.0001 43.9044 10.0001C43.9044 10.0001 42.9826 11.0172 41.8339 12.4766Z" fill="black"/>
</g>
</svg>
