<svg width="126" height="62" viewBox="0 0 126 62" fill="none" xmlns="http://www.w3.org/2000/svg">
<path d="M35.1203 7.06329C35.1203 10.9642 31.9579 14.1266 28.057 14.1266C24.156 14.1266 20.9937 10.9642 20.9937 7.06329C20.9937 3.16234 24.156 0 28.057 0C31.9579 0 35.1203 3.16234 35.1203 7.06329Z" fill="white"/>
<path d="M32.6837 17.3971C32.7145 17.2338 32.5458 17.0957 32.393 17.1614C31.0624 17.7337 29.596 18.0507 28.0557 18.0507C26.5153 18.0507 25.0489 17.7337 23.7183 17.1614C23.5655 17.0957 23.3968 17.2338 23.4276 17.3971C23.5034 17.7996 23.543 18.2148 23.543 18.6393C23.543 22.3235 20.5563 25.3101 16.8721 25.3101C15.1404 25.3101 13.5629 24.6503 12.3771 23.5684C12.2862 23.4855 12.1418 23.5004 12.0749 23.6036C10.3062 26.3317 9.21705 29.5414 9.04733 32.9927C9.04131 33.1151 9.14895 33.2117 9.27076 33.1983C9.51231 33.1718 9.75773 33.1582 10.0063 33.1582C13.6906 33.1582 16.6772 36.1449 16.6772 39.8291C16.6772 42.3067 15.3266 44.4688 13.3215 45.6193C13.215 45.6803 13.1849 45.8219 13.2622 45.9172C15.3546 48.499 18.1091 50.5223 21.2674 51.7284C21.3817 51.772 21.5066 51.6999 21.532 51.5802C22.1732 48.5654 24.851 46.3038 28.057 46.3038C31.2626 46.3038 33.9402 48.565 34.5817 51.5793C34.6071 51.6989 34.7321 51.7711 34.8463 51.7275C38.004 50.5211 40.758 48.4978 42.85 45.9162C42.9272 45.8209 42.8971 45.6793 42.7907 45.6183C40.7866 44.4675 39.4367 42.306 39.4367 39.8291C39.4367 36.1449 42.4234 33.1582 46.1076 33.1582C46.3553 33.1582 46.5999 33.1717 46.8406 33.198C46.9624 33.2114 47.07 33.1148 47.064 32.9924C46.8942 29.5412 45.8051 26.3317 44.0364 23.6036C43.9695 23.5004 43.8251 23.4855 43.7342 23.5684C42.5484 24.6503 40.9709 25.3101 39.2392 25.3101C35.555 25.3101 32.5683 22.3235 32.5683 18.6392C32.5683 18.2148 32.608 17.7996 32.6837 17.3971Z" fill="white"/>
<path d="M38.8736 8.3257C38.8819 8.19658 39.0151 8.11417 39.134 8.16525C45.0047 10.6879 49.8413 15.1405 52.8394 20.7892C55.879 26.5158 56.8415 33.1183 55.5633 39.4743C54.2852 45.8303 50.8454 51.5475 45.8285 55.654C40.8117 59.7605 34.5275 62.0029 28.0442 62C21.561 61.997 15.2789 59.7489 10.2658 55.6378C5.25265 51.5267 1.81799 45.8064 0.545647 39.4492C-0.726693 33.0921 0.241819 26.4905 3.28654 20.7667C6.28996 15.1205 11.0537 10.6645 16.9249 8.14705C17.0456 8.09528 17.1816 8.17569 17.1953 8.30633L17.2178 8.52008C17.44 10.631 18.3409 12.613 19.7852 14.1684L19.9193 14.3128C20.0122 14.4128 19.9771 14.5748 19.8519 14.6291C15.4848 16.5208 11.7506 19.8785 9.51555 24.0801C7.23648 28.3646 6.51152 33.3061 7.46391 38.0646C8.41629 42.8231 10.9872 47.105 14.7397 50.1823C18.4922 53.2595 23.1946 54.9423 28.0475 54.9445C32.9004 54.9467 37.6043 53.2682 41.3595 50.1944C45.1148 47.1205 47.6896 42.841 48.6463 38.0833C49.6031 33.3257 48.8826 28.3835 46.6074 24.097C44.3763 19.8934 40.6282 16.5254 36.2623 14.6295C36.138 14.5755 36.1046 14.4138 36.1987 14.3162L36.2547 14.2582C37.8024 12.6531 38.7305 10.5509 38.8736 8.3257Z" fill="white"/>
<path d="M62.0147 11.1717H65.474C66.8907 11.1717 67.9779 11.5341 68.7356 12.2589C69.5016 12.9837 69.8846 14.0545 69.8846 15.4711C69.8846 17.9173 68.991 19.3175 67.2037 19.6717V19.7705C68.2332 19.9847 68.9992 20.4459 69.5016 21.1542C70.004 21.8543 70.2553 22.8345 70.2553 24.0946C70.2553 25.709 69.897 26.9692 69.1804 27.8752C68.4638 28.7812 67.459 29.2342 66.1659 29.2342H62.0147V11.1717ZM63.2255 19.2146H65.4987C66.6271 19.2146 67.4302 18.9057 67.9079 18.288C68.3938 17.662 68.6368 16.7148 68.6368 15.4464C68.6368 14.4251 68.3691 13.6426 67.8338 13.099C67.3066 12.5554 66.52 12.2836 65.474 12.2836H63.2255V19.2146ZM63.2255 20.3265V28.1223H66.0053C67.9985 28.1223 68.9951 26.7715 68.9951 24.0699C68.9951 22.8674 68.7027 21.9449 68.1179 21.3025C67.5331 20.6518 66.7136 20.3265 65.6593 20.3265H63.2255Z" fill="white"/>
<path d="M79.5276 29.2342H72.9797V11.1717H79.5276V12.333H74.1905V19.1899H79.2311V20.3512H74.1905V28.0728H79.5276V29.2342Z" fill="white"/>
<path d="M89.4667 24.4035C89.4667 26.0096 89.0631 27.2574 88.2559 28.147C87.4488 29.0365 86.3163 29.4813 84.8584 29.4813C83.7053 29.4813 82.6511 29.2548 81.6956 28.8018V27.4675C82.1157 27.731 82.6058 27.9411 83.1658 28.0975C83.7259 28.2458 84.2901 28.3199 84.8584 28.3199C87.0905 28.3199 88.2065 27.0227 88.2065 24.4282C88.2065 23.061 87.8853 22.0561 87.2429 21.4137C86.6004 20.7713 85.6038 20.45 84.253 20.45H83.0176V19.2887H84.3272C85.4885 19.2887 86.3863 18.951 87.0205 18.2756C87.6547 17.6002 87.9718 16.6077 87.9718 15.2982C87.9718 14.2109 87.7288 13.4038 87.2429 12.8766C86.7652 12.3413 86.0898 12.0736 85.2167 12.0736C84.7308 12.0736 84.2819 12.1807 83.8701 12.3948C83.4665 12.609 83.1247 12.8849 82.8446 13.2226L82.0292 12.3825C82.9352 11.4023 84.0307 10.9123 85.3155 10.9123C86.5428 10.9123 87.4982 11.3035 88.1818 12.086C88.8737 12.8602 89.2196 13.9309 89.2196 15.2982C89.2196 16.476 88.9396 17.4643 88.3795 18.2633C87.8277 19.054 87.0781 19.5729 86.131 19.8199V19.9188C87.2264 20.0588 88.0542 20.5159 88.6142 21.2901C89.1826 22.0644 89.4667 23.1022 89.4667 24.4035Z" fill="white"/>
<path d="M99.0667 29.2342H92.5188V11.1717H99.0667V12.333H93.7295V19.1899H98.7702V20.3512H93.7295V28.0728H99.0667V29.2342ZM93.0377 7.89773C93.0377 7.54357 93.1159 7.28824 93.2724 7.13175C93.4372 6.97525 93.6225 6.89701 93.8284 6.89701C94.0178 6.89701 94.1908 6.97525 94.3473 7.13175C94.5038 7.28824 94.582 7.54357 94.582 7.89773C94.582 8.26013 94.5038 8.5237 94.3473 8.68843C94.1908 8.85316 94.0178 8.93552 93.8284 8.93552C93.6225 8.93552 93.4372 8.85316 93.2724 8.68843C93.1159 8.5237 93.0377 8.26013 93.0377 7.89773ZM96.8058 7.89773C96.8058 7.54357 96.8841 7.28824 97.0406 7.13175C97.2053 6.97525 97.3824 6.89701 97.5718 6.89701C97.7777 6.89701 97.9589 6.97525 98.1154 7.13175C98.2719 7.28824 98.3502 7.54357 98.3502 7.89773C98.3502 8.26013 98.2719 8.5237 98.1154 8.68843C97.9589 8.85316 97.7777 8.93552 97.5718 8.93552C97.3824 8.93552 97.2053 8.85316 97.0406 8.68843C96.8841 8.5237 96.8058 8.26013 96.8058 7.89773Z" fill="white"/>
<path d="M108.197 29.2342L103.391 12.7902H103.292C103.374 14.5198 103.416 15.6153 103.416 16.0765V29.2342H102.254V11.1717H104.046L108.098 24.9842C108.46 26.2032 108.695 27.241 108.802 28.0975H108.901C108.983 27.4881 109.239 26.4585 109.667 25.0089L113.682 11.1717H115.535V29.2342H114.325V16.1753C114.325 15.6647 114.366 14.5445 114.448 12.8149H114.349L109.568 29.2342H108.197Z" fill="white"/>
<path d="M63.2255 45.2042L68.3403 36.4818H69.6499L64.4856 45.2042L70.0576 54.5443H68.6615L63.2255 45.303V54.5443H62.0147V36.4818H63.2255V45.2042Z" fill="white"/>
<path d="M81.8562 45.4884C81.8562 48.4782 81.4074 50.7761 80.5096 52.3822C79.6201 53.9883 78.3311 54.7914 76.6426 54.7914C74.9377 54.7914 73.6445 53.9842 72.7632 52.3699C71.8819 50.7473 71.4413 48.4452 71.4413 45.4636C71.4413 42.3503 71.8778 40.0317 72.7509 38.508C73.624 36.9843 74.9335 36.2224 76.6797 36.2224C78.3599 36.2224 79.6407 37.0254 80.522 38.6315C81.4115 40.2294 81.8562 42.515 81.8562 45.4884ZM72.7015 45.4884C72.7015 48.1734 73.035 50.2037 73.7022 51.5792C74.3776 52.9464 75.3577 53.6301 76.6426 53.6301C77.9357 53.6301 78.9158 52.9506 79.583 51.5915C80.2584 50.2325 80.5961 48.1981 80.5961 45.4884C80.5961 42.8115 80.2666 40.7936 79.6077 39.4346C78.9488 38.0673 77.9728 37.3837 76.6797 37.3837C75.3536 37.3837 74.357 38.0756 73.6898 39.4593C73.0309 40.8348 72.7015 42.8445 72.7015 45.4884Z" fill="white"/>
<path d="M92.753 54.5443H91.5423V37.6432H87.9965L87.5147 43.524C87.1605 47.8069 86.8681 50.5043 86.6375 51.6162C86.4069 52.7282 86.0898 53.523 85.6862 54.0007C85.2908 54.4784 84.7019 54.7173 83.9195 54.7173C83.5406 54.7173 83.2317 54.6431 82.9929 54.4949V53.3583C83.1823 53.49 83.4665 53.5559 83.8453 53.5559C84.1171 53.5559 84.3436 53.5024 84.5249 53.3953C84.7143 53.2882 84.8831 53.0823 85.0314 52.7776C85.1879 52.4646 85.3238 52.0198 85.4391 51.4433C85.5626 50.8667 85.678 50.109 85.785 49.17C85.9003 48.2311 86.2833 44.0017 86.934 36.4818H92.753V54.5443Z" fill="white"/>
<path d="M103.001 54.5443H96.4535V36.4818H103.001V37.6432H97.6642V44.5H102.705V45.6613H97.6642V53.383H103.001V54.5443ZM96.9724 33.2079C96.9724 32.8537 97.0506 32.5984 97.2071 32.4419C97.3719 32.2854 97.5572 32.2071 97.7631 32.2071C97.9525 32.2071 98.1255 32.2854 98.282 32.4419C98.4385 32.5984 98.5167 32.8537 98.5167 33.2079C98.5167 33.5703 98.4385 33.8338 98.282 33.9986C98.1255 34.1633 97.9525 34.2456 97.7631 34.2456C97.5572 34.2456 97.3719 34.1633 97.2071 33.9986C97.0506 33.8338 96.9724 33.5703 96.9724 33.2079ZM100.741 33.2079C100.741 32.8537 100.819 32.5984 100.975 32.4419C101.14 32.2854 101.317 32.2071 101.507 32.2071C101.712 32.2071 101.894 32.2854 102.05 32.4419C102.207 32.5984 102.285 32.8537 102.285 33.2079C102.285 33.5703 102.207 33.8338 102.05 33.9986C101.894 34.1633 101.712 34.2456 101.507 34.2456C101.317 34.2456 101.14 34.1633 100.975 33.9986C100.819 33.8338 100.741 33.5703 100.741 33.2079Z" fill="white"/>
<path d="M111.038 37.359C109.679 37.359 108.596 38.0797 107.789 39.5211C106.99 40.9542 106.591 42.9433 106.591 45.4884C106.591 47.1439 106.776 48.5853 107.147 49.8125C107.517 51.0397 108.049 51.9828 108.74 52.6417C109.432 53.3006 110.235 53.6301 111.15 53.6301C112.089 53.6301 112.896 53.4612 113.571 53.1235V54.2354C112.929 54.6061 112.084 54.7914 111.038 54.7914C109.894 54.7914 108.889 54.4208 108.024 53.6795C107.167 52.9382 106.504 51.8675 106.035 50.4673C105.565 49.0588 105.331 47.391 105.331 45.4636C105.331 42.5809 105.841 40.3159 106.863 38.6686C107.892 37.0213 109.292 36.1977 111.063 36.1977C112.167 36.1977 113.13 36.453 113.954 36.9637L113.398 38.0262C112.706 37.5814 111.92 37.359 111.038 37.359Z" fill="white"/>
<path d="M124.152 54.5443L122.558 47.9963H118.172L116.603 54.5443H115.343L119.692 36.4818H120.94L125.388 54.5443H124.152ZM122.274 46.7732L120.68 40.04C120.516 39.2822 120.388 38.5656 120.297 37.8903C120.223 38.6068 120.108 39.3234 119.952 40.04L118.407 46.7732H122.274Z" fill="white"/>
</svg>
