<svg width="49" height="48" viewBox="0 0 49 48" fill="none" xmlns="http://www.w3.org/2000/svg">
<g clip-path="url(#clip0_12250_5278)">
<path d="M18.4111 27.9982C17.0884 27.9982 16.0161 29.0704 16.0161 30.3932C16.0161 31.7159 17.0884 32.7881 18.4111 32.7881C19.7338 32.7881 20.8061 31.7159 20.8061 30.3932C20.8061 29.0704 19.7338 27.9982 18.4111 27.9982ZM18.4111 31.1915C17.9702 31.1915 17.6128 30.834 17.6128 30.3932C17.6128 29.9523 17.9702 29.5948 18.4111 29.5948C18.852 29.5948 19.2094 29.9523 19.2094 30.3932C19.2094 30.834 18.8521 31.1915 18.4111 31.1915Z" fill="black"/>
<path d="M19.2094 24.8049H17.6128V26.4015H19.2094V24.8049Z" fill="black"/>
<path d="M14.4199 29.5948H12.8232V31.1915H14.4199V29.5948Z" fill="black"/>
<path d="M23.9995 29.5948H22.4028V31.1915H23.9995V29.5948Z" fill="black"/>
<path d="M19.2094 34.3848H17.6128V35.9814H19.2094V34.3848Z" fill="black"/>
<path d="M43.6841 5.12076C41.1903 2.62629 37.1466 2.6257 34.652 5.11936C32.1575 7.61313 32.1569 11.6568 34.6506 14.1514C34.6511 14.1519 34.6515 14.1523 34.652 14.1528L35.7808 13.0232C33.9088 11.1572 33.9038 8.12696 35.7698 6.25478C37.4225 4.59666 40.0322 4.37752 41.9383 5.73687L39.5753 8.09991C39.4426 8.06209 39.3053 8.04193 39.1673 8.04004C38.2855 8.04004 37.5707 8.75484 37.5707 9.63669C37.5707 10.5185 38.2855 11.2333 39.1673 11.2333C40.0492 11.2333 40.764 10.5185 40.764 9.63669C40.7621 9.49868 40.7419 9.36147 40.7041 9.22874L43.0672 6.8657C44.4261 8.76721 44.2089 11.3729 42.5538 13.0232L43.6827 14.1528C46.1772 11.659 46.1778 7.61533 43.6841 5.12076Z" fill="black"/>
<path d="M48.4435 7.23053C47.1207 2.10777 41.8956 -0.972864 36.7728 0.349861C31.6499 1.67259 28.5694 6.89773 29.892 12.0206C30.7633 15.395 33.3983 18.0301 36.7728 18.9013V26.4016C36.7728 26.8425 37.1302 27.1999 37.5711 27.1999H38.3694V43.5656C38.3694 45.1088 37.1184 46.3597 35.5753 46.3597C34.0321 46.3597 32.7811 45.1088 32.7811 43.5656V40.4729C38.3784 32.5137 36.4637 21.5239 28.5045 15.9267C20.5453 10.3294 9.55555 12.2441 3.9583 20.2033C-1.63896 28.1625 0.275722 39.1522 8.23502 44.7494C15.3985 49.7871 25.1747 48.7985 31.1846 42.4287V43.5655C31.1846 45.9905 33.1504 47.9563 35.5754 47.9563C38.0004 47.9563 39.9662 45.9905 39.9662 43.5655V27.1998H40.7645C41.2054 27.1998 41.5628 26.8424 41.5628 26.4015V21.6116H43.9578V22.4099H45.5544V19.2166H43.9578V20.0149H41.5628V18.9012C46.6856 17.5785 49.7662 12.3534 48.4435 7.23053ZM32.4682 37.9557C32.0329 36.8633 31.1798 35.9897 30.098 35.5288C30.4653 34.7024 30.7429 33.839 30.9258 32.9534V32.947C30.9729 32.7139 30.9977 32.476 31.032 32.2405C31.0591 32.0545 31.0967 31.8732 31.1118 31.6816C31.1602 31.2542 31.1845 30.8247 31.1845 30.3931C31.1845 29.9628 31.1621 29.5309 31.119 29.1014C31.0991 28.9051 31.0599 28.7151 31.0312 28.5219C30.9985 28.2943 30.9745 28.0652 30.929 27.8401V27.8337C30.6026 26.2488 29.9764 24.7409 29.0841 23.391C29.0769 23.3783 29.0753 23.3639 29.0673 23.3519C29.0593 23.3399 29.041 23.3184 29.029 23.3C28.9093 23.1212 28.7751 22.9535 28.6466 22.7811C28.5181 22.6087 28.4071 22.4394 28.2706 22.2782C28.2195 22.2167 28.162 22.1616 28.1109 22.1009C27.6952 21.615 27.2431 21.1612 26.7586 20.7438C26.6787 20.6751 26.6077 20.6001 26.5271 20.5338C26.3802 20.4125 26.2205 20.3047 26.0672 20.1897C25.8804 20.0492 25.6968 19.9039 25.502 19.7738C25.486 19.7626 25.4717 19.7499 25.4549 19.7395C25.4381 19.7291 25.4309 19.7307 25.4206 19.7243C24.0673 18.8298 22.5552 18.203 20.9659 17.8778C20.8326 17.8506 20.6969 17.8395 20.562 17.8171C20.2762 17.7684 19.9904 17.7157 19.6982 17.687C19.6247 17.679 19.5505 17.6814 19.4762 17.6758C19.1242 17.6447 18.7705 17.6199 18.4113 17.6199C18.052 17.6199 17.6984 17.6447 17.3471 17.6742C17.2729 17.6798 17.1986 17.6742 17.1252 17.6854C16.833 17.7141 16.5472 17.7652 16.2614 17.8155C16.1265 17.8379 15.9908 17.8491 15.8574 17.8762C14.2704 18.2024 12.7604 18.8295 11.4092 19.7235C11.398 19.7299 11.3852 19.7315 11.3748 19.7387C11.3645 19.7459 11.3437 19.7618 11.3277 19.773C11.1329 19.9031 10.9493 20.0484 10.7625 20.1889C10.6092 20.3039 10.4496 20.4117 10.3027 20.533C10.2229 20.5993 10.1494 20.6743 10.0712 20.743C9.58659 21.1604 9.13454 21.6142 8.71881 22.1001C8.66692 22.1608 8.60944 22.2159 8.55914 22.2774C8.42662 22.437 8.30847 22.6127 8.18313 22.7803C8.0578 22.948 7.92048 23.1204 7.80073 23.2992C7.78876 23.3176 7.77439 23.3335 7.76242 23.3511C7.75044 23.3687 7.75283 23.3775 7.74565 23.3902C6.85332 24.7401 6.22714 26.248 5.90072 27.8329V27.8393C5.85522 28.0644 5.83127 28.2935 5.79854 28.5211C5.7698 28.7143 5.73068 28.9043 5.71072 29.1006C5.66042 29.5309 5.63807 29.9628 5.63807 30.3931C5.63807 30.8234 5.66043 31.2553 5.70353 31.6848C5.72269 31.8732 5.76022 32.0545 5.78337 32.2437C5.8177 32.4832 5.84244 32.7171 5.88954 32.9502V32.9566C6.21536 34.5412 6.84135 36.049 7.73368 37.3984C7.74086 37.4112 7.74246 37.4256 7.75044 37.4376C7.75842 37.4495 7.77679 37.4711 7.78876 37.4894C7.90851 37.6683 8.04263 37.8359 8.17116 38.0084C8.29969 38.1808 8.41066 38.35 8.54717 38.5113C8.59826 38.5728 8.65574 38.6279 8.70683 38.6885C9.12256 39.1745 9.57461 39.6283 10.0592 40.0457C10.139 40.1143 10.2101 40.1894 10.2907 40.2556C10.4376 40.377 10.5973 40.4848 10.7505 40.5997C10.9374 40.7402 11.121 40.8855 11.3158 41.0157C11.3317 41.0268 11.3461 41.0396 11.3629 41.05C11.3796 41.0604 11.386 41.0588 11.3972 41.0651C12.7521 41.9591 14.266 42.5849 15.8566 42.9085C16.0163 42.9396 16.176 42.954 16.33 42.9795C16.5919 43.0234 16.8529 43.0721 17.1204 43.0993C17.9782 43.1866 18.8428 43.1866 19.7006 43.0993C19.968 43.0721 20.2291 43.0234 20.4909 42.9795C20.6506 42.954 20.8102 42.9396 20.9643 42.9085C22.5512 42.5825 24.0609 41.9554 25.4118 41.0612C25.423 41.0548 25.4365 41.0532 25.4469 41.046C25.4573 41.0388 25.478 41.0228 25.494 41.0117C25.6888 40.8815 25.8724 40.7362 26.0592 40.5957C26.2125 40.4808 26.3722 40.373 26.5191 40.2517C26.5989 40.1854 26.6723 40.1104 26.7506 40.0417C27.2352 39.6243 27.6872 39.1705 28.1029 38.6845C28.1548 38.6239 28.2123 38.5688 28.2626 38.5073C28.3951 38.3476 28.5133 38.172 28.6386 38.0044C28.764 37.8367 28.9013 37.6643 29.021 37.4855C29.033 37.4671 29.0474 37.4511 29.0593 37.4336C29.0713 37.416 29.0689 37.4072 29.0761 37.3944C29.1695 37.2531 29.2533 37.1047 29.3411 36.9586C30.4433 37.3574 31.1794 38.4017 31.1845 39.5739V39.9323C28.181 43.9722 23.4452 46.355 18.4113 46.3596C9.58619 46.3666 2.42631 39.2181 2.41932 30.393C2.41234 21.5679 9.56084 14.4081 18.3859 14.4011C27.211 14.3941 34.3709 21.5426 34.3779 30.3677C34.3801 33.0162 33.7238 35.6237 32.4682 37.9557ZM26.1199 33.5864H29.1168C28.9505 34.1357 28.7415 34.6712 28.4917 35.1879C28.4574 35.1871 28.4247 35.1831 28.3903 35.1831C28.1816 35.1846 27.9732 35.2011 27.7668 35.2326L26.1199 33.5864ZM27.3501 37.0735C27.3126 37.1246 27.2751 37.1757 27.2368 37.2252C26.9647 37.5809 26.6715 37.9196 26.3586 38.2399L26.2596 38.3389C26.0888 38.5073 25.8972 38.6526 25.716 38.8091C25.9436 38.0047 26.5195 37.3445 27.2855 37.0097L27.3501 37.0735ZM24.1927 31.9898C23.7519 31.9899 23.3945 32.3473 23.3946 32.7883C23.3946 33 23.4787 33.2028 23.6283 33.3525L26.1071 35.8273C25.1572 36.408 24.4626 37.3272 24.1632 38.3995L21.3691 35.6054C21.0564 35.2946 20.5509 35.2961 20.24 35.6088C20.0905 35.7593 20.0068 35.9633 20.0079 36.1754V41.4444C19.9089 41.4563 19.8115 41.4755 19.7117 41.4899C19.6151 41.501 19.5186 41.5122 19.4212 41.521C19.0962 41.5505 18.7689 41.5697 18.4368 41.5705H18.3857C18.0536 41.5705 17.7263 41.5505 17.4014 41.521C17.304 41.5122 17.2074 41.501 17.1108 41.4899C17.0142 41.4787 16.9136 41.4587 16.8146 41.4444V36.1754C16.8145 35.7345 16.4571 35.3772 16.0161 35.3773C15.8044 35.3773 15.6016 35.4614 15.4519 35.611L11.7309 39.3344C11.6822 39.2977 11.6327 39.2625 11.5848 39.225C11.2265 38.9514 10.8854 38.6563 10.5629 38.3413L10.4639 38.2423C10.151 37.922 9.85782 37.5833 9.58579 37.2276C9.54747 37.1781 9.50596 37.127 9.47243 37.0759L13.1942 33.3549C13.5073 33.0445 13.5094 32.5389 13.1988 32.2259C13.0483 32.0742 12.8434 31.9892 12.6298 31.9898H7.36086C7.34649 31.89 7.32653 31.7926 7.31535 31.6928C7.30418 31.593 7.293 31.5012 7.28422 31.4054C7.25548 31.0709 7.23472 30.7348 7.23472 30.3931C7.23472 30.0515 7.25548 29.7154 7.28582 29.3817C7.2946 29.2851 7.30577 29.1893 7.31695 29.0935C7.32813 28.9977 7.34808 28.8955 7.36245 28.7965H12.6314C13.0723 28.7964 13.4296 28.4389 13.4295 27.998C13.4295 27.7863 13.3454 27.5834 13.1958 27.4337L9.47003 23.7127C9.50755 23.6617 9.54508 23.6106 9.5834 23.5611C9.85542 23.2054 10.1486 22.8666 10.4616 22.5464L10.5605 22.4474C10.883 22.1324 11.2242 21.8373 11.5824 21.5637C11.6303 21.5261 11.6798 21.491 11.7285 21.4543L15.4495 25.1753C15.7599 25.4883 16.2655 25.4904 16.5785 25.18C16.7302 25.0295 16.8152 24.8245 16.8146 24.6109V19.3419C16.9136 19.3275 17.011 19.3084 17.1108 19.2964C17.2106 19.2844 17.304 19.2741 17.4014 19.2653C17.7263 19.2357 18.0536 19.2166 18.3857 19.2158H18.4368C18.7689 19.2158 19.0962 19.2357 19.4212 19.2653C19.5186 19.2741 19.6151 19.2852 19.7117 19.2964C19.8083 19.3076 19.9089 19.3275 20.0079 19.3419V24.6109C20.008 25.0517 20.3655 25.4091 20.8064 25.409C21.0181 25.409 21.221 25.3249 21.3707 25.1753L25.0917 21.4519C25.1404 21.4886 25.1899 21.5237 25.2378 21.5613C25.596 21.8349 25.9372 22.13 26.2596 22.445L26.3586 22.544C26.6715 22.8642 26.9647 23.203 27.2368 23.5587C27.2751 23.6082 27.3126 23.6593 27.3501 23.7104L23.6283 27.4314C23.3153 27.7418 23.3132 28.2473 23.6237 28.5604C23.7742 28.7121 23.9792 28.7971 24.1928 28.7965H29.4618C29.4762 28.8955 29.4961 28.9937 29.5073 29.0935C29.5185 29.1933 29.5297 29.2851 29.5384 29.3817C29.5688 29.7154 29.5895 30.0515 29.5895 30.3931C29.5895 30.7348 29.5688 31.0709 29.5384 31.4054C29.5297 31.5012 29.5185 31.597 29.5073 31.6928C29.4961 31.7886 29.4762 31.89 29.4618 31.9898H24.1927ZM23.7249 40.2229C23.0504 40.5877 22.3398 40.8812 21.6046 41.0987V38.1026L23.7249 40.2229ZM15.218 38.1026V41.0987C14.4832 40.8813 13.7732 40.5882 13.0992 40.2237L15.218 38.1026ZM8.5815 35.7068C8.21686 35.0323 7.92338 34.3217 7.70573 33.5864H10.7026L8.5815 35.7068ZM7.70573 27.1998C7.92338 26.4646 8.21686 25.754 8.5815 25.0795L10.7026 27.1998H7.70573ZM13.0976 20.5634C13.7721 20.1986 14.4827 19.905 15.218 19.6876V22.6837L13.0976 20.5634ZM21.6046 22.6837V19.6876C22.3398 19.905 23.0504 20.1986 23.7249 20.5634L21.6046 22.6837ZM28.2411 25.0795C28.6057 25.754 28.8992 26.4646 29.1168 27.1998H26.1199L28.2411 25.0795ZM39.9661 25.6032H38.3694V24.0065H39.9661V25.6032ZM39.9661 22.4099H38.3694V19.2166H39.9661V22.4099ZM39.1677 17.6199C34.7607 17.615 31.1894 14.0437 31.1845 9.63668C31.1845 5.22763 34.7587 1.65343 39.1677 1.65343C43.5768 1.65343 47.151 5.22763 47.151 9.63668C47.151 14.0457 43.5768 17.6199 39.1677 17.6199Z" fill="black"/>
</g>
<defs>
<clipPath id="clip0_12250_5278">
<rect width="48" height="48" fill="white" transform="translate(0.75)"/>
</clipPath>
</defs>
</svg>
