<svg width="49" height="48" viewBox="0 0 49 48" fill="none" xmlns="http://www.w3.org/2000/svg">
<path d="M33.0502 0H15.4502C13.2422 0.0026 11.4528 1.792 11.4502 4V44C11.4528 46.208 13.2422 47.9974 15.4502 48H33.0502C35.2582 47.9974 37.0476 46.208 37.0502 44V4C37.0476 1.792 35.2582 0.0026 33.0502 0ZM35.4502 44C35.4502 45.3255 34.3757 46.4 33.0502 46.4H15.4502C14.1247 46.4 13.0502 45.3255 13.0502 44V41.6H35.4502V44ZM16.2502 40V38.4H19.4502V40H16.2502ZM35.4502 40H21.0502V37.6C21.0502 37.1582 20.692 36.8 20.2502 36.8H15.4502C15.0084 36.8 14.6502 37.1582 14.6502 37.6V40H13.0502V8H35.4502V40ZM35.4502 6.4H13.0502V4C13.0502 2.6745 14.1247 1.6 15.4502 1.6H33.0502C34.3757 1.6 35.4502 2.6745 35.4502 4V6.4Z" fill="black"/>
<path d="M29.0502 3.20001H19.4502V4.80001H29.0502V3.20001Z" fill="black"/>
<path d="M25.0502 43.2H23.4502V44.8H25.0502V43.2Z" fill="black"/>
<path d="M29.7136 11.2H33.8504V9.60002H29.7136C29.0765 9.59802 28.4651 9.85122 28.016 10.3032L23.0864 15.2328L18.252 15.7128C16.2033 15.9119 14.6428 17.6377 14.6504 19.696V23.2C14.6504 23.6418 15.0086 24 15.4504 24H17.9304C18.37 26.165 20.4814 27.5636 22.6464 27.124C24.2205 26.8044 25.4508 25.5741 25.7704 24H33.8504V22.4H25.7704C25.7704 22.3856 25.7608 22.3728 25.7576 22.3584C25.7082 22.1306 25.6389 21.9076 25.5504 21.692C25.5192 21.616 25.4776 21.5464 25.4416 21.4728C25.373 21.3258 25.2955 21.1832 25.2096 21.0456C25.1584 20.9656 25.1008 20.8944 25.044 20.8192C24.9562 20.6992 24.8617 20.5844 24.7608 20.4752C24.6936 20.404 24.624 20.3376 24.552 20.2712C24.4448 20.1722 24.3321 20.0792 24.2144 19.9928C24.1344 19.9344 24.0544 19.8784 23.9744 19.8256C23.8468 19.7468 23.7148 19.6752 23.5792 19.6112C23.4944 19.5696 23.4112 19.5264 23.3232 19.4912C23.1677 19.4323 23.0087 19.3829 22.8472 19.3432C22.7672 19.3224 22.692 19.2952 22.6072 19.2792C22.1057 19.1768 21.5887 19.1768 21.0872 19.2792C21.0072 19.2952 20.9272 19.3224 20.8472 19.3432C20.6857 19.3828 20.5267 19.4323 20.3712 19.4912C20.2832 19.5264 20.2 19.5712 20.1152 19.6112C19.9796 19.6752 19.8476 19.7468 19.72 19.8256C19.64 19.8784 19.56 19.9344 19.48 19.9928C19.3623 20.0792 19.2496 20.1722 19.1424 20.2712C19.0704 20.3376 19.0008 20.404 18.9336 20.4752C18.8327 20.5844 18.7382 20.6992 18.6504 20.8192C18.5936 20.8944 18.536 20.9664 18.4848 21.0456C18.3989 21.1832 18.3214 21.3258 18.2528 21.4728C18.2168 21.5464 18.1728 21.616 18.144 21.692C18.0555 21.9076 17.9862 22.1306 17.9368 22.3584C17.9368 22.3728 17.9272 22.3856 17.924 22.4H16.2504V19.696C16.247 18.4621 17.1824 17.428 18.4104 17.308L23.4912 16.8H33.8504V15.2H25.3816L29.1472 11.4344C29.2974 11.2842 29.5012 11.1998 29.7136 11.2ZM21.8504 20.8C23.1759 20.8 24.2504 21.8745 24.2504 23.2C24.2504 24.5255 23.1759 25.6 21.8504 25.6C20.5249 25.6 19.4504 24.5255 19.4504 23.2C19.4504 21.8745 20.5249 20.8 21.8504 20.8Z" fill="black"/>
<path d="M33.8499 18.4H30.6499V20H33.8499V18.4Z" fill="black"/>
<path d="M22.6498 22.4H21.0498V24H22.6498V22.4Z" fill="black"/>
<path d="M21.8499 9.60001H14.6499V11.2H21.8499V9.60001Z" fill="black"/>
<path d="M18.6499 12.8H14.6499V14.4H18.6499V12.8Z" fill="black"/>
<path d="M20.2499 28.8H15.4499C15.0081 28.8 14.6499 29.1582 14.6499 29.6V34.4C14.6499 34.8418 15.0081 35.2 15.4499 35.2H20.2499C20.6917 35.2 21.0499 34.8418 21.0499 34.4V29.6C21.0499 29.1582 20.6917 28.8 20.2499 28.8ZM19.4499 33.6H16.2499V30.4H19.4499V33.6Z" fill="black"/>
<path d="M28.2499 28.8H22.6499V30.4H28.2499V28.8Z" fill="black"/>
<path d="M33.8499 32H22.6499V33.6H33.8499V32Z" fill="black"/>
<path d="M33.8501 28.8H29.8501V30.4H33.8501V28.8Z" fill="black"/>
<path d="M28.2499 36.8H22.6499V38.4H28.2499V36.8Z" fill="black"/>
<path d="M33.8501 36.8H29.8501V38.4H33.8501V36.8Z" fill="black"/>
</svg>
