<svg width="49" height="48" viewBox="0 0 49 48" fill="none" xmlns="http://www.w3.org/2000/svg">
<g clip-path="url(#clip0_12250_5256)">
<path d="M48.75 13.6269V5.64794C48.7474 3.44574 46.9627 1.66104 44.7605 1.65845H20.8235C18.6213 1.66104 16.8366 3.44574 16.834 5.64794V12.8697C7.59462 13.2335 0.399463 21.0183 0.763206 30.2576C1.12695 39.497 8.91175 46.6922 18.1511 46.3284C18.7039 46.3067 19.2551 46.2575 19.8031 46.1812C20.1345 46.2799 20.4778 46.3336 20.8236 46.3408H44.7606C46.9628 46.3382 48.7475 44.5535 48.7501 42.3513V34.3723C48.7475 32.1701 46.9628 30.3854 44.7606 30.3828H44.7398C45.2678 29.6963 45.5556 28.8552 45.5585 27.9891V20.0101C45.5556 19.144 45.2678 18.3029 44.7398 17.6164H44.7606C46.9627 17.6137 48.7473 15.8291 48.75 13.6269ZM20.8235 3.25424H44.7605C46.0825 3.25424 47.1542 4.32592 47.1542 5.64794H18.4298C18.4298 4.32592 19.5015 3.25424 20.8235 3.25424ZM18.4298 7.24374H47.1542V8.83954H18.4298V7.24374ZM18.4298 10.4353H47.1542V12.0311H18.4298V10.4353ZM23.8396 43.4013C23.5927 43.5114 23.343 43.6149 23.0903 43.7117C22.9754 43.7564 22.8581 43.7979 22.7409 43.8402C14.8639 46.6667 6.18703 42.5725 3.36047 34.6957C0.533909 26.8187 4.62813 18.1418 12.505 15.3153C14.1499 14.725 15.8843 14.4238 17.6319 14.4248C18.1106 14.4248 18.5766 14.4528 19.041 14.4958C19.1894 14.5102 19.3354 14.5317 19.483 14.5493C19.8022 14.5884 20.115 14.6355 20.4261 14.6937C20.5937 14.7256 20.7613 14.7591 20.9272 14.7959C21.2137 14.8605 21.4961 14.9355 21.777 15.0153C21.9461 15.0639 22.1177 15.1078 22.2852 15.1629C22.5573 15.2507 22.8222 15.3536 23.0831 15.4565C23.4933 15.6161 23.897 15.7932 24.2936 15.9895C24.4109 16.0478 24.5329 16.0996 24.647 16.1603C24.9303 16.3095 25.2056 16.4746 25.4816 16.639C25.5726 16.6949 25.6644 16.7483 25.7545 16.805C26.0314 16.9829 26.3035 17.172 26.5716 17.3683C26.6514 17.4257 26.7264 17.4832 26.803 17.5414C27.079 17.7542 27.3468 17.9731 27.6064 18.1981C27.7062 18.2851 27.8035 18.3752 27.9001 18.4646C28.1219 18.6681 28.3389 18.8763 28.5472 19.0917C28.6884 19.2386 28.8232 19.3918 28.9589 19.5449C29.1185 19.7221 29.278 19.8984 29.4256 20.0827C29.6004 20.2998 29.7632 20.5256 29.9267 20.7522C30.0305 20.8958 30.1398 21.0354 30.2387 21.1822C30.3017 21.2764 30.3544 21.3777 30.415 21.4735C30.6544 21.8469 30.8802 22.2299 31.0869 22.6328C31.1204 22.6982 31.1491 22.7661 31.1826 22.8315C31.4052 23.2847 31.6127 23.7507 31.7954 24.2342C31.8082 24.2677 31.8201 24.302 31.8329 24.3363C32.0029 24.7975 32.1521 25.2683 32.2773 25.7462L32.2885 25.7893C32.4173 26.2891 32.5206 26.7951 32.5981 27.3053V27.3205C32.6524 27.6811 32.6915 28.0146 32.7218 28.3362C32.7553 28.7471 32.7848 29.1588 32.7848 29.5777C32.7836 30.0862 32.757 30.5944 32.705 31.1001C32.705 31.1448 32.6923 31.1895 32.6875 31.2342C32.6452 31.6188 32.5837 31.9962 32.5135 32.3712C32.4824 32.5308 32.4521 32.6903 32.4162 32.8499C32.3555 33.1236 32.2821 33.3925 32.2071 33.6606C32.1178 33.9765 32.0177 34.2906 31.9071 34.6029C31.8616 34.7314 31.8154 34.8582 31.7667 34.9851C31.5951 35.4335 31.4005 35.8731 31.1866 36.3032C31.1547 36.3686 31.1252 36.4357 31.0925 36.5003C30.8456 36.9814 30.5734 37.4491 30.277 37.9014L30.2714 37.911C30.1637 38.0706 30.0472 38.2301 29.9347 38.3897C29.7975 38.5796 29.6586 38.7687 29.5134 38.9483C29.3969 39.0967 29.2788 39.2435 29.1568 39.3871C28.9381 39.6432 28.7131 39.8922 28.4785 40.1331C28.3628 40.252 28.2392 40.3677 28.1227 40.4834C27.9057 40.6925 27.6827 40.8951 27.454 41.0914C27.3096 41.2151 27.162 41.3308 27.0136 41.4521C26.8149 41.6116 26.6147 41.7593 26.4056 41.9069C26.2532 42.0154 26.1016 42.1271 25.9452 42.2308C25.6795 42.4055 25.405 42.5683 25.1282 42.7271C24.8665 42.8771 24.5992 43.0159 24.3303 43.1492C24.1747 43.2425 24.0079 43.3255 23.8396 43.4013ZM34.32 28.2444V28.2412C34.3128 28.1567 34.3152 28.0697 34.3072 27.9859H43.9626C43.9626 29.3079 42.8909 30.3796 41.5689 30.3796H34.3686C34.3814 30.1115 34.3878 29.845 34.3878 29.5817C34.3878 29.1532 34.3623 28.7072 34.32 28.2444ZM34.0742 26.3933C33.9678 25.8512 33.8372 25.3193 33.6824 24.7975H43.9626V26.3933H34.0742ZM33.1167 23.2017C32.8936 22.6568 32.6417 22.1241 32.3619 21.6059H43.9626V23.2017H33.1167ZM31.3749 20.0101C31.2489 19.8306 31.1052 19.6646 30.976 19.4899C30.8092 19.2705 30.6472 19.0463 30.4701 18.8348C30.3504 18.692 30.2188 18.5595 30.0943 18.4215C29.8549 18.1526 29.6156 17.8845 29.3554 17.6316L29.3387 17.6164H41.5689C42.8909 17.6164 43.9626 18.6881 43.9626 20.0101H31.3749ZM44.7605 44.745H24.7476C24.9008 44.6732 25.0492 44.5902 25.2008 44.5136C25.3763 44.4242 25.555 44.3413 25.7266 44.2455C26.0992 44.0404 26.4615 43.8162 26.8181 43.5816C26.9641 43.4859 27.1054 43.3854 27.2474 43.2856C27.5134 43.0984 27.7745 42.9029 28.0309 42.6992C28.149 42.605 28.2703 42.5149 28.3844 42.4183C28.4123 42.3952 28.4418 42.3744 28.469 42.3513H47.1542C47.1542 43.6732 46.0825 44.745 44.7605 44.745ZM47.1542 40.7555H30.1063C30.1948 40.6566 30.277 40.5512 30.3632 40.4499C30.4669 40.3286 30.5714 40.2105 30.672 40.0837C30.9113 39.7829 31.1507 39.4765 31.3685 39.1597H47.1542V40.7555ZM47.1542 37.5639H32.3627C32.6425 37.0458 32.8944 36.5131 33.1175 35.9681H47.1542V37.5639ZM44.7605 31.9778V31.9786C46.0825 31.9786 47.1542 33.0503 47.1542 34.3723H33.6824C33.7056 34.2925 33.7215 34.2127 33.7439 34.1329C33.8396 33.7962 33.9298 33.4595 34.0048 33.1204C34.0431 32.9417 34.0718 32.7598 34.1045 32.5786C34.1412 32.3784 34.1843 32.1797 34.2154 31.9778H44.7605ZM27.4405 16.0206C27.4054 15.9951 27.3679 15.9735 27.3328 15.948C27.0897 15.7752 26.8418 15.6086 26.5891 15.4485C26.4351 15.3504 26.2779 15.257 26.1208 15.1637C25.8862 15.0248 25.6532 14.8844 25.4106 14.7576C25.0324 14.557 24.6483 14.3709 24.2585 14.199C24.0989 14.1312 23.9393 14.0738 23.7797 14.0107C23.4733 13.8886 23.1645 13.7713 22.8518 13.67C22.8095 13.6565 22.772 13.6381 22.7265 13.6245H47.1542C47.1555 14.9466 46.0849 16.0193 44.7629 16.0206C44.7621 16.0206 44.7613 16.0206 44.7605 16.0206H27.4405Z" fill="black"/>
<path d="M29.7323 25.55V25.5428C29.6525 25.3082 29.5727 25.0864 29.4842 24.8693C29.4195 24.7098 29.3517 24.5502 29.2807 24.3906C29.2695 24.3659 29.2607 24.3419 29.2504 24.318C29.2232 24.2582 29.1905 24.2023 29.1618 24.1449C29.0198 23.8432 28.869 23.5472 28.7046 23.26C28.6894 23.2337 28.6799 23.2105 28.6631 23.1802C28.6352 23.1323 28.5985 23.0852 28.5698 23.0366C28.399 22.7525 28.2211 22.478 28.0296 22.2052C28.0096 22.1772 27.9937 22.1469 27.9737 22.119C27.9346 22.0655 27.8892 22.0177 27.8493 21.965C27.657 21.7065 27.4567 21.4551 27.2453 21.2126C27.2213 21.1846 27.1998 21.1527 27.1758 21.1256C27.1663 21.1144 27.1527 21.1096 27.1423 21.0993C25.3108 19.0367 22.8601 17.6234 20.1575 17.0715C19.9181 17.0236 19.6971 17.0005 19.4697 16.9677C19.2902 16.9414 19.1139 16.9039 18.9319 16.888C18.8394 16.8784 18.746 16.8816 18.6535 16.8744C18.3128 16.8433 17.9753 16.8185 17.6322 16.8185C17.2891 16.8185 16.9516 16.8433 16.6156 16.8704C16.5231 16.8776 16.4297 16.8704 16.3372 16.884C16.1656 16.9015 16.0005 16.9366 15.8313 16.9638C15.6047 16.9965 15.3861 17.0204 15.1443 17.0683H15.1395C12.4104 17.6178 9.93604 19.0453 8.09409 21.1328C8.08611 21.1408 8.07573 21.1448 8.06855 21.1527C8.0502 21.1735 8.03504 21.1958 8.01749 21.2166C7.80365 21.4615 7.60178 21.716 7.4071 21.977C7.37039 22.0264 7.3273 22.0735 7.2906 22.123C7.27225 22.1477 7.25709 22.1764 7.23954 22.2028C7.04246 22.4788 6.85974 22.7613 6.68101 23.0557C6.65069 23.106 6.61558 23.1507 6.58606 23.2017C6.56771 23.2337 6.55095 23.268 6.5326 23.2999C6.45281 23.4339 6.38259 23.568 6.31078 23.7052C6.20307 23.9119 6.09774 24.1249 5.99561 24.3483C5.98763 24.3667 5.98205 24.3858 5.97407 24.4042C5.82087 24.7473 5.68523 25.0983 5.56235 25.4566C5.55198 25.4869 5.53762 25.5156 5.52725 25.5468V25.5571C4.64587 28.1698 4.64587 30.9993 5.52725 33.6119C5.52725 33.6167 5.52725 33.6215 5.52725 33.6263C5.60225 33.8521 5.68683 34.0827 5.78417 34.3173C5.8472 34.4769 5.91263 34.6301 5.98205 34.784C5.99322 34.8088 6.0012 34.8319 6.01237 34.8567C6.03152 34.8973 6.05705 34.9364 6.0762 34.9795C6.2278 35.2987 6.38898 35.6179 6.56531 35.9266C6.57808 35.9482 6.58685 35.9697 6.59962 35.9921C6.62755 36.0399 6.66345 36.0862 6.69138 36.1341C6.86373 36.4205 7.04325 36.7006 7.23634 36.9719C7.25549 36.9982 7.26986 37.0261 7.28901 37.0517C7.32571 37.1019 7.3688 37.1482 7.4063 37.1977C7.60098 37.4586 7.80525 37.7123 8.01509 37.9573C8.04063 37.986 8.06137 38.0179 8.0869 38.0467C8.09728 38.0578 8.11084 38.0626 8.12121 38.0738C9.95279 40.1356 12.4032 41.5481 15.1052 42.1C15.3446 42.1479 15.5656 42.171 15.793 42.2037C15.9725 42.23 16.1489 42.2675 16.3308 42.2835C16.7601 42.3266 17.1957 42.3489 17.6258 42.3489C18.0559 42.3489 18.4915 42.3266 18.92 42.2835L18.9487 42.2795C19.3397 42.2396 19.7314 42.1806 20.1807 42.092C22.8742 41.5378 25.3161 40.1274 27.1423 38.0714C27.1527 38.061 27.1663 38.0562 27.1766 38.0451C27.2022 38.0163 27.2229 37.9844 27.2476 37.9557C27.4623 37.7099 27.6641 37.4554 27.8588 37.1937C27.8955 37.1442 27.9386 37.0988 27.9753 37.0485C27.9937 37.0237 28.0088 36.995 28.0264 36.9687C28.2227 36.6942 28.4038 36.4102 28.5777 36.1205C28.6089 36.0695 28.6448 36.0232 28.6751 35.9713C28.6887 35.9474 28.6998 35.9219 28.7134 35.8979C28.8426 35.6721 28.9607 35.4399 29.0764 35.2061C29.1395 35.0865 29.2017 34.9668 29.2663 34.8231C29.2751 34.804 29.2799 34.7856 29.2887 34.7673C29.4363 34.4354 29.5671 34.0955 29.6876 33.75C29.702 33.7077 29.7235 33.6646 29.7371 33.6231V33.6087C30.6182 30.9944 30.6165 28.1632 29.7323 25.55ZM20.8238 18.8851C22.4954 19.3876 24.0258 20.2752 25.292 21.4767L20.8238 24.0571V18.8851ZM14.4406 18.8851V24.0571L9.97234 21.4767C11.2385 20.2751 12.7689 19.3875 14.4406 18.8851ZM6.77516 32.1685C6.35706 30.4718 6.35706 28.6989 6.77516 27.0021L11.249 29.5849L6.77516 32.1685ZM14.4406 40.2848C12.769 39.7823 11.2385 38.8947 9.97234 37.6932L14.4406 35.1128V40.2848ZM20.8238 40.2848V35.1128L25.292 37.6932C24.0258 38.8946 22.4954 39.7823 20.8238 40.2848ZM27.9905 33.7476C27.937 33.8784 27.8788 34.0117 27.8181 34.1465C27.7974 34.1928 27.7735 34.2367 27.7519 34.2822C27.6913 34.4087 27.6277 34.5335 27.5612 34.6564L27.3969 34.9755C27.3729 35.0266 27.3426 35.0825 27.3107 35.1407C27.2788 35.199 27.25 35.2396 27.2197 35.2899C27.0657 35.5492 26.9006 35.807 26.7202 36.0591C26.6157 36.2051 26.5088 36.3495 26.3971 36.4908L20.4248 33.0398C20.0432 32.8195 19.5552 32.9503 19.3349 33.3319C19.2643 33.4541 19.2275 33.5929 19.228 33.734V40.6279C19.0827 40.6494 18.9407 40.6797 18.7931 40.6949H18.7668C18.012 40.7707 17.2516 40.7707 16.4968 40.6949H16.4736C16.326 40.6797 16.1824 40.6494 16.0364 40.6279V33.734C16.0364 33.2934 15.6791 32.9361 15.2385 32.9361C15.0984 32.9361 14.9608 32.973 14.8395 33.043L8.86725 36.4916C8.75874 36.3543 8.65421 36.2131 8.54809 36.0703C8.36218 35.8109 8.18904 35.5421 8.02228 35.2612C7.99674 35.2181 7.96961 35.1814 7.94248 35.1343C7.78291 34.8598 7.64008 34.5758 7.49885 34.2726C7.47412 34.2199 7.44619 34.1689 7.41906 34.113C7.3659 33.9917 7.31424 33.8708 7.26427 33.75L7.25629 33.7276L13.2437 30.2759C13.6253 30.0556 13.7561 29.5676 13.5358 29.186C13.4657 29.0647 13.365 28.964 13.2437 28.894L7.26666 25.443V25.4375C7.32012 25.3034 7.37837 25.1686 7.43901 25.0321C7.46215 24.9819 7.48768 24.9324 7.51162 24.8821C7.64407 24.5989 7.78849 24.3156 7.95286 24.0284C7.98158 23.9789 8.0127 23.9318 8.04142 23.8831C8.201 23.6222 8.36058 23.3637 8.5441 23.1108C8.64783 22.9656 8.75395 22.8219 8.86326 22.6823L14.8395 26.13C15.2211 26.3503 15.7091 26.2196 15.9295 25.838C16.0001 25.7157 16.0369 25.577 16.0364 25.4359V18.542C16.1808 18.5213 16.3228 18.4909 16.4696 18.4758L16.4976 18.4718C17.2524 18.396 18.0128 18.396 18.7676 18.4718H18.7907C18.9383 18.4869 19.082 18.5173 19.228 18.5388V25.4359C19.228 25.8765 19.5852 26.2338 20.0259 26.2338C20.1659 26.2338 20.3035 26.1969 20.4248 26.1268L26.3979 22.6791C26.5043 22.8164 26.609 22.9565 26.7123 23.0996C26.8974 23.3573 27.0705 23.627 27.2373 23.9079C27.2636 23.9526 27.2923 23.9956 27.3171 24.0403C27.3418 24.085 27.3713 24.1417 27.3969 24.1935L27.5564 24.5071C27.5939 24.5765 27.6314 24.6467 27.6697 24.7201C27.7232 24.8303 27.7798 24.9396 27.8293 25.0521C27.8844 25.1773 27.9386 25.3034 27.9889 25.4367L22.0206 28.894C21.639 29.1143 21.5083 29.6023 21.7286 29.9839C21.7986 30.1052 21.8993 30.2059 22.0206 30.2759L25.7348 32.4207L27.9977 33.7268L27.9905 33.7476ZM28.4892 32.1677L24.0154 29.5849L28.4892 27.0021C28.9073 28.6986 28.9073 30.4712 28.4892 32.1677Z" fill="black"/>
<path d="M17.6315 27.1912C16.3095 27.1912 15.2378 28.2628 15.2378 29.5849C15.2378 30.9069 16.3095 31.9786 17.6315 31.9786C18.9535 31.9786 20.0252 30.9069 20.0252 29.5849C20.0252 28.2628 18.9535 27.1912 17.6315 27.1912ZM17.6315 30.3828C17.1909 30.3828 16.8336 30.0255 16.8336 29.5849C16.8336 29.1442 17.1909 28.787 17.6315 28.787C18.0721 28.787 18.4294 29.1442 18.4294 29.5849C18.4294 30.0255 18.0721 30.3828 17.6315 30.3828Z" fill="black"/>
</g>
<defs>
<clipPath id="clip0_12250_5256">
<rect width="48" height="48" fill="white" transform="translate(0.75)"/>
</clipPath>
</defs>
</svg>
