<svg width="49" height="48" viewBox="0 0 49 48" fill="none" xmlns="http://www.w3.org/2000/svg">
<path fill-rule="evenodd" clip-rule="evenodd" d="M24.5001 39.3C32.9501 39.3 39.8001 32.45 39.8001 24C39.8001 15.55 32.9501 8.70001 24.5001 8.70001C16.0501 8.70001 9.2001 15.55 9.2001 24C9.2001 32.45 16.0501 39.3 24.5001 39.3ZM24.5001 40.9C33.8337 40.9 41.4001 33.3336 41.4001 24C41.4001 14.6664 33.8337 7.10001 24.5001 7.10001C15.1665 7.10001 7.6001 14.6664 7.6001 24C7.6001 33.3336 15.1665 40.9 24.5001 40.9Z" fill="black"/>
<path fill-rule="evenodd" clip-rule="evenodd" d="M24.5001 34.4C30.2439 34.4 34.9001 29.7438 34.9001 24C34.9001 18.2562 30.2439 13.6 24.5001 13.6C18.7563 13.6 14.1001 18.2562 14.1001 24C14.1001 29.7438 18.7563 34.4 24.5001 34.4ZM24.5001 36C31.1275 36 36.5001 30.6274 36.5001 24C36.5001 17.3726 31.1275 12 24.5001 12C17.8727 12 12.5001 17.3726 12.5001 24C12.5001 30.6274 17.8727 36 24.5001 36Z" fill="black"/>
<path fill-rule="evenodd" clip-rule="evenodd" d="M27.4001 24C27.4001 25.6016 26.1017 26.9 24.5001 26.9C22.8985 26.9 21.6001 25.6016 21.6001 24C21.6001 22.3984 22.8985 21.1 24.5001 21.1C26.1017 21.1 27.4001 22.3984 27.4001 24ZM25.8001 24C25.8001 24.718 25.2181 25.3 24.5001 25.3C23.7821 25.3 23.2001 24.718 23.2001 24C23.2001 23.282 23.7821 22.7 24.5001 22.7C25.2181 22.7 25.8001 23.282 25.8001 24Z" fill="black"/>
<path fill-rule="evenodd" clip-rule="evenodd" d="M24.5001 36C31.1275 36 36.5001 30.6274 36.5001 24C36.5001 17.3726 31.1275 12 24.5001 12C17.8727 12 12.5001 17.3726 12.5001 24C12.5001 30.6274 17.8727 36 24.5001 36ZM24.5001 34.4C24.8925 34.4 25.2799 34.3783 25.661 34.3359V28.1285C26.3931 27.9211 27.0456 27.5236 27.5618 26.9925L32.9274 30.0955C33.3645 29.4923 33.7384 28.8403 34.0394 28.1492L28.6509 25.0329C28.7325 24.7021 28.7758 24.3561 28.7758 24C28.7758 23.6133 28.7248 23.2386 28.629 22.8822L34.0052 19.7731C33.6986 19.0847 33.3194 18.4357 32.8774 17.8359L27.5003 20.9455C26.9942 20.4455 26.3644 20.0708 25.661 19.8715V13.6641C25.2799 13.6217 24.8925 13.6 24.5001 13.6C24.1361 13.6 23.7765 13.6187 23.4222 13.6552V19.8451C22.6964 20.0322 22.0451 20.4051 21.5218 20.9101L16.1478 17.8023C15.7032 18.4003 15.3214 19.0478 15.0121 19.7349L20.3702 22.8336C20.2658 23.2044 20.21 23.5957 20.21 24C20.21 24.3738 20.2577 24.7364 20.3474 25.0821L14.9776 28.1876C15.2813 28.8773 15.6578 29.5278 16.0974 30.1294L21.4594 27.0285C21.993 27.5647 22.6673 27.9603 23.4222 28.1549V34.3448C23.7765 34.3813 24.1361 34.4 24.5001 34.4ZM21.8648 28.5953V34.0632C20.0429 33.5874 18.4157 32.63 17.1274 31.335L21.8648 28.5953ZM19.1881 23.9513L14.4515 26.6905C14.2223 25.8323 14.1001 24.9304 14.1001 24C14.1001 23.0391 14.2304 22.1086 14.4744 21.2253L19.1881 23.9513ZM21.8648 19.3072L17.1893 16.6033C18.4677 15.3396 20.072 14.405 21.8648 13.9368V19.3072ZM27.2184 28.5953V34.0412C29.021 33.5544 30.6295 32.5951 31.9031 31.3045L27.2184 28.5953ZM34.9001 24C34.9001 24.9154 34.7818 25.8031 34.5598 26.6488L29.8953 23.9513L34.5372 21.2668C34.7738 22.1377 34.9001 23.0541 34.9001 24ZM27.2184 13.9589C28.992 14.4378 30.5779 15.3742 31.8415 16.6336L27.2184 19.3072V13.9589Z" fill="black"/>
<path d="M24.401 2.30024C24.2483 2.33597 24.1162 2.45579 24.1013 2.6597L23.893 5.50978C24.0945 5.50329 24.2968 5.50002 24.4998 5.50002C24.7031 5.50002 24.9057 5.5033 25.1074 5.50981L24.8992 2.6597C24.8843 2.4558 24.7521 2.33598 24.5994 2.30024C24.5662 2.30009 24.533 2.30002 24.4998 2.30002C24.4669 2.30002 24.4339 2.30009 24.401 2.30024Z" fill="black"/>
<path d="M30.0477 3.01569C29.8825 2.99996 29.7092 3.07939 29.6382 3.2836L28.7006 5.97903C29.0965 6.07095 29.4875 6.17558 29.8732 6.29246L30.4088 3.49011C30.4495 3.27751 30.3388 3.12193 30.1876 3.05307C30.141 3.04046 30.0944 3.028 30.0477 3.01569Z" fill="black"/>
<path d="M35.2804 5.16312C35.1268 5.1099 34.9439 5.14402 34.8249 5.31929L33.2213 7.68072C33.5788 7.87214 33.9292 8.07497 34.2721 8.28871L35.5159 5.71823C35.608 5.52785 35.5464 5.35266 35.424 5.24619C35.3762 5.21833 35.3284 5.19063 35.2804 5.16312Z" fill="black"/>
<path d="M39.773 8.58514C39.6399 8.50306 39.4623 8.49476 39.308 8.62804L37.1451 10.4964C37.4406 10.7732 37.727 11.0596 38.0038 11.3551L39.8722 9.19222C40.0055 9.03793 39.9972 8.86031 39.9151 8.7272C39.868 8.67964 39.8206 8.63226 39.773 8.58514Z" fill="black"/>
<path d="M43.2535 13.0757C43.147 12.9536 42.9721 12.8924 42.782 12.9844L40.2114 14.2282C40.4251 14.5711 40.628 14.9215 40.8194 15.279L43.1809 13.6753C43.3559 13.5565 43.3902 13.374 43.3373 13.2205C43.3096 13.1721 43.2816 13.1238 43.2535 13.0757Z" fill="black"/>
<path d="M45.4464 18.3111C45.3772 18.1607 45.222 18.0509 45.0101 18.0914L42.2075 18.6271C42.3244 19.0128 42.429 19.4038 42.5209 19.7997L45.2166 18.8621C45.4201 18.7913 45.4997 18.6189 45.4847 18.4542C45.4721 18.4064 45.4593 18.3587 45.4464 18.3111Z" fill="black"/>
<path d="M46.1996 23.8991C46.1633 23.7471 46.0437 23.6159 45.8405 23.6011L42.99 23.3928C42.9965 23.5944 42.9998 23.7968 42.9998 24C42.9998 24.2032 42.9965 24.4056 42.99 24.6072L45.8405 24.3989C46.0437 24.3841 46.1633 24.2529 46.1996 24.1009C46.1997 24.0673 46.1998 24.0337 46.1998 24C46.1998 23.9664 46.1997 23.9327 46.1996 23.8991Z" fill="black"/>
<path d="M45.4847 29.5458C45.4997 29.3811 45.4201 29.2087 45.2166 29.1379L42.5209 28.2003C42.429 28.5962 42.3244 28.9872 42.2075 29.3729L45.0101 29.9086C45.222 29.9491 45.3773 29.8393 45.4465 29.6889C45.4594 29.6413 45.4721 29.5936 45.4847 29.5458Z" fill="black"/>
<path d="M43.3373 34.7795C43.3902 34.6261 43.3559 34.4435 43.1809 34.3247L40.8194 32.721C40.628 33.0785 40.4251 33.4289 40.2114 33.7718L42.782 35.0156C42.9721 35.1076 43.1471 35.0464 43.2536 34.9243C43.2817 34.8762 43.3096 34.8279 43.3373 34.7795Z" fill="black"/>
<path d="M39.9151 39.2729C39.9972 39.1398 40.0055 38.9621 39.8722 38.8078L38.0039 36.6449C37.727 36.9404 37.4406 37.2268 37.1451 37.5037L39.308 39.372C39.4623 39.5053 39.64 39.4969 39.7731 39.4148C39.8206 39.3677 39.868 39.3204 39.9151 39.2729Z" fill="black"/>
<path d="M35.4238 42.7539C35.5464 42.6475 35.608 42.4722 35.5159 42.2818L34.2721 39.7113C33.9292 39.9251 33.5788 40.1279 33.2213 40.3193L34.8249 42.6807C34.9439 42.856 35.1269 42.8901 35.2806 42.8368C35.3284 42.8094 35.3762 42.7817 35.4238 42.7539Z" fill="black"/>
<path d="M30.1874 44.947C30.3387 44.8782 30.4495 44.7226 30.4088 44.5099L29.8732 41.7076C29.4875 41.8245 29.0965 41.9291 28.7006 42.021L29.6382 44.7164C29.7092 44.9207 29.8827 45.0001 30.0479 44.9843C30.0945 44.972 30.141 44.9596 30.1874 44.947Z" fill="black"/>
<path d="M24.5993 45.6998C24.752 45.6641 24.8843 45.5443 24.8992 45.3403L25.1074 42.4902C24.9057 42.4967 24.7031 42.5 24.4998 42.5C24.2968 42.5 24.0945 42.4967 23.893 42.4903L24.1013 45.3403C24.1162 45.5443 24.2484 45.6641 24.4012 45.6998C24.434 45.6999 24.4669 45.7 24.4998 45.7C24.533 45.7 24.5662 45.6999 24.5993 45.6998Z" fill="black"/>
<path d="M18.9512 44.9842C19.1169 45.0005 19.291 44.9212 19.3623 44.7164L20.2998 42.0212C19.9039 41.9293 19.5129 41.8247 19.1272 41.7078L18.5916 44.5099C18.5508 44.7231 18.6623 44.879 18.8142 44.9476C18.8598 44.9599 18.9055 44.9721 18.9512 44.9842Z" fill="black"/>
<path d="M13.7178 42.8361C13.8718 42.8904 14.056 42.8568 14.1756 42.6807L15.7789 40.3196C15.4215 40.1282 15.0711 39.9254 14.7282 39.7117L13.4846 42.2818C13.392 42.4731 13.4546 42.6491 13.5783 42.7554C13.6247 42.7825 13.6712 42.8094 13.7178 42.8361Z" fill="black"/>
<path d="M9.22511 39.4134C9.35848 39.4968 9.53725 39.506 9.69244 39.372L11.8549 37.504C11.5594 37.2272 11.273 36.9408 10.9962 36.6454L9.12825 38.8078C8.9942 38.963 9.00338 39.1418 9.08678 39.2751C9.13268 39.3214 9.1788 39.3675 9.22511 39.4134Z" fill="black"/>
<path d="M5.74432 34.9213C5.85058 35.0454 6.02681 35.1084 6.21844 35.0156L8.78839 33.7721C8.57467 33.4292 8.37186 33.0788 8.18045 32.7214L5.8195 34.3247C5.64309 34.4445 5.60967 34.629 5.66439 34.7832C5.69086 34.8294 5.71751 34.8754 5.74432 34.9213Z" fill="black"/>
<path d="M3.55192 29.6844C3.62008 29.8371 3.77631 29.9495 3.99032 29.9086L6.79215 29.3731C6.67528 28.9874 6.57066 28.5964 6.47876 28.2006L3.78382 29.1379C3.57826 29.2094 3.49912 29.3846 3.51623 29.5508C3.52799 29.5954 3.53989 29.6399 3.55192 29.6844Z" fill="black"/>
<path d="M2.80002 24.0973C2.83521 24.2508 2.95517 24.384 3.15991 24.3989L6.00958 24.6072C6.00308 24.4056 5.9998 24.2032 5.9998 24C5.9998 23.7968 6.00308 23.5944 6.00958 23.3928L3.15991 23.6011C2.95517 23.616 2.83521 23.7492 2.80002 23.9027C2.79988 23.9351 2.7998 23.9676 2.7998 24C2.7998 24.0325 2.79988 24.0649 2.80002 24.0973Z" fill="black"/>
<path d="M3.51623 18.4492C3.49914 18.6154 3.57827 18.7906 3.78382 18.8621L6.47876 19.7994C6.57067 19.4036 6.67529 19.0126 6.79216 18.6269L3.99032 18.0914C3.77633 18.0505 3.62011 18.1629 3.55194 18.3156C3.5399 18.3601 3.52799 18.4046 3.51623 18.4492Z" fill="black"/>
<path d="M5.66436 13.2169C5.60968 13.3711 5.64312 13.5556 5.8195 13.6753L8.18046 15.2786C8.37187 14.9212 8.57468 14.5708 8.7884 14.2279L6.21844 12.9844C6.02685 12.8917 5.85064 12.9546 5.74437 13.0786C5.71754 13.1246 5.69087 13.1707 5.66436 13.2169Z" fill="black"/>
<path d="M9.08673 8.72497C9.00337 8.85833 8.99423 9.03707 9.12825 9.19222L10.9962 11.3547C11.273 11.0592 11.5594 10.7728 11.8549 10.496L9.69244 8.62804C9.53728 8.49402 9.35855 8.50316 9.22519 8.58651C9.17883 8.63246 9.13268 8.67861 9.08673 8.72497Z" fill="black"/>
<path d="M13.5782 5.24472C13.4546 5.35104 13.392 5.52697 13.4846 5.71823L14.7282 8.28831C15.0711 8.0746 15.4215 7.87179 15.7789 7.68039L14.1756 5.31929C14.056 5.14322 13.872 5.10959 13.7179 5.16386C13.6712 5.19064 13.6246 5.2176 13.5782 5.24472Z" fill="black"/>
<path d="M18.8141 3.05252C18.6623 3.12109 18.5509 3.27694 18.5916 3.49011L19.1272 6.29222C19.5129 6.17536 19.9039 6.07075 20.2998 5.97885L19.3623 3.2836C19.2911 3.07886 19.117 2.99954 18.9514 3.01581C18.9056 3.0279 18.8598 3.04014 18.8141 3.05252Z" fill="black"/>
</svg>
