<svg width="48" height="48" viewBox="0 0 48 48" fill="none" xmlns="http://www.w3.org/2000/svg">
<path d="M24 48C37.2548 48 48 37.2548 48 24C48 10.7452 37.2548 0 24 0C10.7452 0 0 10.7452 0 24C0 37.2548 10.7452 48 24 48Z" fill="url(#paint0_linear_12250_22034)"/>
<path d="M8.93813 25.1741C11.7437 23.6287 14.8755 22.3389 17.8017 21.0425C22.8359 18.9191 27.8901 16.8325 32.9953 14.8899C33.9886 14.5589 35.7733 14.2352 35.9483 15.7072C35.8525 17.7908 35.4583 19.8622 35.1879 21.9336C34.5016 26.4888 33.7084 31.0284 32.9349 35.5686C32.6684 37.0809 30.7739 37.8638 29.5617 36.896C26.6485 34.9282 23.7129 32.9796 20.8369 30.9662C19.8948 30.0089 20.7684 28.6342 21.6098 27.9506C24.0092 25.586 26.5538 23.577 28.8278 21.0902C29.4412 19.6089 27.6288 20.8573 27.031 21.2398C23.7462 23.5034 20.5418 25.9052 17.0786 27.8946C15.3096 28.8684 13.2478 28.0362 11.4796 27.4928C9.89419 26.8364 7.57097 26.1751 8.93797 25.1742L8.93813 25.1741Z" fill="white"/>
<defs>
<linearGradient id="paint0_linear_12250_22034" x1="18.0028" y1="2.0016" x2="6.0028" y2="30" gradientUnits="userSpaceOnUse">
<stop stop-color="#37AEE2"/>
<stop offset="1" stop-color="#1E96C8"/>
</linearGradient>
</defs>
</svg>
