<svg width="48" height="48" viewBox="0 0 48 48" fill="none" xmlns="http://www.w3.org/2000/svg">
<path d="M45.7838 38.1471L41.3838 33.7471C41.2756 33.639 41.1364 33.5675 40.9856 33.5425L36.8174 32.8473L27.969 23.9989L36.8174 15.1506L40.9856 14.4554C41.1364 14.4304 41.2756 14.3589 41.3838 14.2508L45.7838 9.85081C46.07 9.56444 46.07 9.10024 45.7838 8.81388L39.1838 2.21391C38.8974 1.92764 38.4332 1.92764 38.1469 2.21391L33.7469 6.61389C33.639 6.72187 33.5675 6.86084 33.5423 7.01135L32.8471 11.1803L23.9988 20.0287L15.1504 11.1803L14.4552 7.01135C14.43 6.86084 14.3585 6.72187 14.2506 6.61389L9.85062 2.21391C9.56426 1.92764 9.10006 1.92764 8.8137 2.21391L2.21373 8.81388C1.92746 9.10024 1.92746 9.56444 2.21373 9.85081L6.61371 14.2508C6.72187 14.3589 6.86111 14.4304 7.0119 14.4554L11.1802 15.1506L20.0285 23.9989L11.1802 32.8473L7.0119 33.5425C6.86111 33.5675 6.72187 33.639 6.61371 33.7471L2.21373 38.1471C1.92746 38.4334 1.92746 38.8976 2.21373 39.184L8.8137 45.784C9.10006 46.0702 9.56426 46.0702 9.85062 45.784L14.2506 41.384C14.3585 41.276 14.43 41.137 14.4552 40.9865L15.1504 36.8175L23.9988 27.9692L32.8471 36.8175L33.5423 40.9865C33.5675 41.137 33.639 41.276 33.7469 41.384L38.1469 45.784C38.4332 46.0702 38.8974 46.0702 39.1838 45.784L45.7838 39.184C46.07 38.8976 46.07 38.4334 45.7838 38.1471ZM38.6653 3.7693L44.2284 9.33234L40.8653 12.6954L35.3023 7.13235L38.6653 3.7693ZM3.76912 9.33234L9.33216 3.7693L12.6952 7.13235L7.13217 12.6954L3.76912 9.33234ZM9.33216 44.2286L3.76912 38.6655L7.13217 35.3025L12.6952 40.8655L9.33216 44.2286ZM34.2551 36.3445C34.2299 36.194 34.1584 36.0551 34.0505 35.9471L24.5172 26.4138C24.2309 26.1275 23.7667 26.1275 23.4803 26.4138L13.947 35.9471C13.8391 36.0551 13.7676 36.194 13.7424 36.3445L13.243 39.3395L8.65823 34.7547L11.6524 34.2553C11.8032 34.2303 11.9424 34.1588 12.0506 34.0507L21.5839 24.5174C21.8702 24.231 21.8702 23.7668 21.5839 23.4805L12.0506 13.9472C11.9424 13.8391 11.8032 13.7676 11.6524 13.7426L8.65823 13.2432L13.243 8.65841L13.7424 11.6533C13.7676 11.8038 13.8391 11.9428 13.947 12.0508L23.4803 21.5841C23.7667 21.8704 24.2309 21.8704 24.5172 21.5841L34.0505 12.0508C34.1584 11.9428 34.2299 11.8038 34.2551 11.6533L34.7545 8.65841L39.3393 13.2432L36.3451 13.7426C36.1943 13.7676 36.0551 13.8391 35.9469 13.9472L26.4136 23.4805C26.1273 23.7668 26.1273 24.231 26.4136 24.5174L35.9469 34.0507C36.0551 34.1588 36.1943 34.2303 36.3451 34.2553L39.3393 34.7547L34.7545 39.3395L34.2551 36.3445ZM38.6653 44.2286L35.3023 40.8655L40.8653 35.3025L44.2284 38.6655L38.6653 44.2286Z" fill="black"/>
</svg>
