<svg width="48" height="48" viewBox="0 0 48 48" fill="none" xmlns="http://www.w3.org/2000/svg">
<circle cx="24" cy="24" r="24" fill="#4680C2"/>
<path fill-rule="evenodd" clip-rule="evenodd" d="M37.3176 17.1797C37.5325 16.5143 37.3176 16.0303 36.3655 16.0303H33.202C32.4035 16.0303 32.0349 16.4537 31.8199 16.9075C31.8199 16.9075 30.1921 20.7794 27.9193 23.29C27.1822 24.016 26.8443 24.258 26.4451 24.258C26.2301 24.258 25.9537 24.016 25.9537 23.3506V17.1494C25.9537 16.363 25.708 16 25.0322 16H20.0568C19.5653 16 19.2582 16.363 19.2582 16.726C19.2582 17.4823 20.3946 17.6637 20.5174 19.7811V24.379C20.5174 25.3773 20.3332 25.5587 19.9339 25.5587C18.8589 25.5587 16.2483 21.6566 14.682 17.21C14.3748 16.3327 14.0677 16 13.2692 16H10.0749C9.15357 16 9 16.4235 9 16.8773C9 17.694 10.0749 21.8078 14.0062 27.2527C16.6169 30.9733 20.3332 32.9697 23.6809 32.9697C25.708 32.9697 25.9537 32.516 25.9537 31.7598V28.9467C25.9537 28.0391 26.1379 27.888 26.783 27.888C27.2436 27.888 28.0729 28.1299 29.9464 29.9146C32.0963 32.032 32.4648 33 33.6627 33H36.8261C37.7475 33 38.1775 32.5463 37.9318 31.669C37.6554 30.7918 36.6112 29.5214 35.2598 28.0089C34.5226 27.162 33.4169 26.2243 33.0791 25.7704C32.6184 25.1655 32.7413 24.9235 33.0791 24.379C33.0485 24.379 36.9183 18.9947 37.3176 17.1797Z" fill="white"/>
</svg>
